<svg width="94" height="95" viewBox="0 0 94 95" fill="none" xmlns="http://www.w3.org/2000/svg">
<g id="Clear sky 1" filter="url(#filter0_d)">
<path id="Star 1" d="M45.3612 2.34244C46.1574 1.20442 47.8426 1.20442 48.6388 2.34244L56.9702 14.2512C57.4525 14.9406 58.3147 15.2545 59.1274 15.0364L73.1644 11.269C74.5058 10.909 75.7967 11.9923 75.6751 13.3758L74.4025 27.8538C74.3289 28.6919 74.7876 29.4866 75.5503 29.8418L88.7249 35.9787C89.9839 36.5652 90.2765 38.2248 89.2941 39.2065L79.0129 49.4792C78.4178 50.0739 78.2584 50.9776 78.6143 51.74L84.7619 64.9096C85.3494 66.1681 84.5068 67.6275 83.1232 67.748L68.6442 69.0088C67.8059 69.0818 67.103 69.6716 66.8856 70.4844L63.1297 84.5245C62.7708 85.8662 61.1872 86.4426 60.0498 85.6455L48.1478 77.3044C47.4588 76.8215 46.5412 76.8215 45.8522 77.3044L33.9502 85.6455C32.8128 86.4426 31.2292 85.8662 30.8703 84.5245L27.1144 70.4844C26.897 69.6716 26.1941 69.0818 25.3558 69.0088L10.8769 67.748C9.49322 67.6275 8.65061 66.1681 9.23808 64.9096L15.3857 51.74C15.7416 50.9776 15.5822 50.0739 14.9871 49.4792L4.70593 39.2065C3.72345 38.2248 4.01609 36.5652 5.27507 35.9787L18.4497 29.8418C19.2124 29.4866 19.6711 28.6919 19.5975 27.8538L18.3249 13.3758C18.2033 11.9923 19.4942 10.909 20.8356 11.269L34.8726 15.0364C35.6853 15.2545 36.5475 14.9406 37.0298 14.2512L45.3612 2.34244Z" fill="#FFE27D"/>
<circle id="Ellipse 1" cx="46.8856" cy="44.8856" r="33.3856" fill="#FFC600" stroke="white"/>
<circle id="midPointSun" cx="47" cy="45" r="1" fill="#C4C4C4"/>
</g>
<defs>
<filter id="filter0_d" x="0.119171" y="1.48892" width="93.7617" height="92.52" filterUnits="userSpaceOnUse" color-interpolation-filters="sRGB">
<feFlood flood-opacity="0" result="BackgroundImageFix"/>
<feColorMatrix in="SourceAlpha" type="matrix" values="0 0 0 0 0 0 0 0 0 0 0 0 0 0 0 0 0 0 127 0"/>
<feOffset dy="4"/>
<feGaussianBlur stdDeviation="2"/>
<feColorMatrix type="matrix" values="0 0 0 0 0 0 0 0 0 0 0 0 0 0 0 0 0 0 0.25 0"/>
<feBlend mode="normal" in2="BackgroundImageFix" result="effect1_dropShadow"/>
<feBlend mode="normal" in="SourceGraphic" in2="effect1_dropShadow" result="shape"/>
</filter>
</defs>
</svg>
