<svg width="99" height="88" viewBox="0 0 99 88" fill="none" xmlns="http://www.w3.org/2000/svg">
<path d="M73.3484 2.41834C74.1425 1.2556 75.8575 1.25559 76.6516 2.41834L79.2225 6.18282C79.7042 6.88817 80.5807 7.20976 81.4043 6.98333L85.7302 5.794C87.0727 5.42491 88.3721 6.50624 88.2531 7.89342L87.849 12.6033C87.7777 13.4333 88.2285 14.2205 88.9803 14.5793L93.1586 16.573C94.3958 17.1634 94.6859 18.7952 93.7279 19.7757L90.4342 23.147C89.8571 23.7377 89.7024 24.6224 90.0449 25.374L92.0152 29.6979C92.5872 30.953 91.7468 32.3967 90.373 32.5193L85.8508 32.9227C85.0099 32.9977 84.3067 33.5926 84.0934 34.4094L82.9182 38.9094C82.5636 40.2674 80.957 40.8473 79.8168 40.0287L76.1664 37.4081C75.4693 36.9076 74.5307 36.9076 73.8336 37.4081L70.1832 40.0287C69.0431 40.8473 67.4364 40.2674 67.0818 38.9094L65.9066 34.4094C65.6933 33.5926 64.9901 32.9977 64.1492 32.9227L59.627 32.5193C58.2532 32.3967 57.4128 30.953 57.9848 29.6979L59.9551 25.374C60.2976 24.6224 60.1429 23.7377 59.5658 23.147L56.2721 19.7757C55.3141 18.7952 55.6042 17.1634 56.8414 16.573L61.0197 14.5793C61.7715 14.2205 62.2223 13.4333 62.151 12.6033L61.7469 7.89343C61.6279 6.50625 62.9273 5.42491 64.2698 5.794L68.5957 6.98333C69.4193 7.20976 70.2958 6.88817 70.7775 6.18283L73.3484 2.41834Z" fill="#FFE27D"/>
<path d="M90.2598 21.4575C90.2598 30.1392 83.3925 37.1564 74.9466 37.1564C66.5006 37.1564 59.6333 30.1392 59.6333 21.4575C59.6333 12.7758 66.5006 5.75854 74.9466 5.75854C83.3925 5.75854 90.2598 12.7758 90.2598 21.4575Z" fill="#FFC600" stroke="white"/>
<ellipse cx="75" cy="21.5122" rx="0.466667" ry="0.478049" fill="#C4C4C4"/>
<g filter="url(#filter0_d)">
<path d="M59.5058 31.3802H8.44057C5.79937 31.3802 3.9758 27.9821 5.63483 26.4829C8.20909 24.1567 10.7091 22.7144 13.6348 21.9829C17.6348 20.983 21.4485 20.7402 23.6348 18.5539C28.1348 14.0539 26.7994 8.55398 35.7994 7.05397C40.7314 6.23197 37.7775 15.0258 47.6348 17.9829C52.6348 19.4829 55.1348 17.0539 57.7994 17.0539C64.1348 17.0539 61.6838 19.0956 66.7251 21.0539C71.7664 23.0123 72.194 23.5056 70.6348 27.4829C69.1348 31.3092 66.7251 30.8802 66.7251 30.8802C66.7251 30.8802 64.2781 31.3802 59.5058 31.3802Z" fill="#4A677C"/>
<path d="M59.5058 31.3802H8.44057C5.79937 31.3802 3.9758 27.9821 5.63483 26.4829C8.20909 24.1567 10.7091 22.7144 13.6348 21.9829C17.6348 20.983 21.4485 20.7402 23.6348 18.5539C28.1348 14.0539 26.7994 8.55398 35.7994 7.05397C40.7314 6.23197 37.7775 15.0258 47.6348 17.9829C52.6348 19.4829 55.1348 17.0539 57.7994 17.0539C64.1348 17.0539 61.6838 19.0956 66.7251 21.0539C71.7664 23.0123 72.194 23.5056 70.6348 27.4829C69.1348 31.3092 66.7251 30.8802 66.7251 30.8802C66.7251 30.8802 64.2781 31.3802 59.5058 31.3802Z" stroke="#EBEBEB"/>
</g>
<g filter="url(#filter1_d)">
<path d="M81.4156 56.9829H30.3504C26.2361 56.9829 20.0138 56.0849 17.6845 53.7969C14.1487 50.3239 12.6349 45.4829 22.1531 40.9883C24.4607 39.8986 34.6153 36.5799 37.59 33.6532C45.2409 26.126 46.7135 38.1512 51.3118 35.9242C56.2976 33.5095 59.8879 18.9829 70.1793 18.9829C74.0633 18.9829 73.3446 26.092 76.4684 28.3186C81.4156 31.8448 85.6349 28.7811 85.6349 35.9242C85.6349 38.1951 91.532 42.0185 93.6206 46.9898C95.7091 51.9611 90.7618 54.9918 90.7618 54.9918C90.7618 54.9918 86.1879 56.9829 81.4156 56.9829Z" fill="#4A677C"/>
<path d="M81.4156 56.9829H30.3504C26.2361 56.9829 20.0138 56.0849 17.6845 53.7969C14.1487 50.3239 12.6349 45.4829 22.1531 40.9883C24.4607 39.8986 34.6153 36.5799 37.59 33.6532C45.2409 26.126 46.7135 38.1512 51.3118 35.9242C56.2976 33.5095 59.8879 18.9829 70.1793 18.9829C74.0633 18.9829 73.3446 26.092 76.4684 28.3186C81.4156 31.8448 85.6349 28.7811 85.6349 35.9242C85.6349 38.1951 91.532 42.0185 93.6206 46.9898C95.7091 51.9611 90.7618 54.9918 90.7618 54.9918C90.7618 54.9918 86.1879 56.9829 81.4156 56.9829Z" stroke="#EBEBEB"/>
</g>
<path d="M17.5572 34C15.42 38.7368 15.5129 40 17.6501 40C19.4224 40 19.5085 38.7368 17.5572 34Z" fill="#A6C1D4" stroke="#6A6A6A" stroke-width="0.5"/>
<path d="M27.5572 62C25.42 66.7368 25.5129 68 27.6501 68C29.4224 68 29.5085 66.7368 27.5572 62Z" fill="#A6C1D4" stroke="#6A6A6A" stroke-width="0.5"/>
<path d="M48.6919 61.9829C46.5548 66.7198 46.6477 67.9829 48.7848 67.9829C50.5572 67.9829 50.6433 66.7198 48.6919 61.9829Z" fill="#A6C1D4" stroke="#6A6A6A" stroke-width="0.5"/>
<path d="M37.5572 60C35.42 64.7368 35.5129 66 37.6501 66C39.4224 66 39.5085 64.7368 37.5572 60Z" fill="#A6C1D4" stroke="#6A6A6A" stroke-width="0.5"/>
<path d="M67.5882 82C65.4706 85.5714 65.4706 87 67.5882 87C69.4706 87 69.4706 85.5714 67.5882 82Z" fill="#A6C1D4" stroke="#6A6A6A" stroke-width="0.5"/>
<path d="M61.5572 59C59.42 63.7368 59.5129 65 61.6501 65C63.4224 65 63.5085 63.7368 61.5572 59Z" fill="#A6C1D4" stroke="#6A6A6A" stroke-width="0.5"/>
<path d="M75.5572 59C73.42 63.7368 73.5129 65 75.6501 65C77.4224 65 77.5085 63.7368 75.5572 59Z" fill="#A6C1D4" stroke="#6A6A6A" stroke-width="0.5"/>
<path d="M71.5882 70C69.4706 73.5714 69.4706 75 71.5882 75C73.4706 75 73.4706 73.5714 71.5882 70Z" fill="#A6C1D4" stroke="#6A6A6A" stroke-width="0.5"/>
<path d="M23.0588 34C21.6471 36.8571 21.6471 38 23.0588 38C24.3137 38 24.3137 36.8571 23.0588 34Z" fill="#A6C1D4" stroke="#6A6A6A" stroke-width="0.5"/>
<path d="M53.6919 80.9829C51.5548 85.7198 51.6477 86.9829 53.7848 86.9829C55.5572 86.9829 55.6433 85.7198 53.6919 80.9829Z" fill="#A6C1D4" stroke="#6A6A6A" stroke-width="0.5"/>
<path d="M59.6919 67.9829C57.5548 74.2987 57.6477 75.9829 59.7848 75.9829C61.5572 75.9829 61.6433 74.2987 59.6919 67.9829Z" fill="#A6C1D4" stroke="#6A6A6A" stroke-width="0.5"/>
<path d="M85.5572 65C83.42 71.3158 83.5129 73 85.6501 73C87.4224 73 87.5085 71.3158 85.5572 65Z" fill="#A6C1D4" stroke="#6A6A6A" stroke-width="0.5"/>
<path d="M13.0381 40C11.6133 43.1579 11.6753 44 13.1001 44C14.2816 44 14.339 43.1579 13.0381 40Z" fill="#A6C1D4" stroke="#6A6A6A" stroke-width="0.5"/>
<path d="M41.723 75.9829C39.6053 79.5544 39.6054 80.9829 41.723 80.9829C43.6054 80.9829 43.6053 79.5544 41.723 75.9829Z" fill="#A6C1D4" stroke="#6A6A6A" stroke-width="0.5"/>
<path d="M33.0588 70C31.6471 72.8571 31.6471 74 33.0588 74C34.3137 74 34.3137 72.8571 33.0588 70Z" fill="#A6C1D4" stroke="#6A6A6A" stroke-width="0.5"/>
<circle cx="69" cy="45" r="1" fill="#C4C4C4"/>
<circle cx="34" cy="22" r="1" fill="#C4C4C4"/>
<defs>
<filter id="filter0_d" x="0.500366" y="6.50002" width="75.4348" height="33.3801" filterUnits="userSpaceOnUse" color-interpolation-filters="sRGB">
<feFlood flood-opacity="0" result="BackgroundImageFix"/>
<feColorMatrix in="SourceAlpha" type="matrix" values="0 0 0 0 0 0 0 0 0 0 0 0 0 0 0 0 0 0 127 0"/>
<feOffset dy="4"/>
<feGaussianBlur stdDeviation="2"/>
<feColorMatrix type="matrix" values="0 0 0 0 0 0 0 0 0 0 0 0 0 0 0 0 0 0 0.25 0"/>
<feBlend mode="normal" in2="BackgroundImageFix" result="effect1_dropShadow"/>
<feBlend mode="normal" in="SourceGraphic" in2="effect1_dropShadow" result="shape"/>
</filter>
<filter id="filter1_d" x="10.4587" y="18.4829" width="88.1765" height="47" filterUnits="userSpaceOnUse" color-interpolation-filters="sRGB">
<feFlood flood-opacity="0" result="BackgroundImageFix"/>
<feColorMatrix in="SourceAlpha" type="matrix" values="0 0 0 0 0 0 0 0 0 0 0 0 0 0 0 0 0 0 127 0"/>
<feOffset dy="4"/>
<feGaussianBlur stdDeviation="2"/>
<feColorMatrix type="matrix" values="0 0 0 0 0 0 0 0 0 0 0 0 0 0 0 0 0 0 0.25 0"/>
<feBlend mode="normal" in2="BackgroundImageFix" result="effect1_dropShadow"/>
<feBlend mode="normal" in="SourceGraphic" in2="effect1_dropShadow" result="shape"/>
</filter>
</defs>
</svg>
