<svg width="99" height="85" viewBox="0 0 99 85" fill="none" xmlns="http://www.w3.org/2000/svg">
<g filter="url(#filter0_d)">
<path d="M59.5058 25.3802H8.44057C5.79937 25.3802 3.9758 21.9821 5.63483 20.4829C8.20909 18.1567 10.7091 16.7144 13.6348 15.9829C17.6348 14.983 21.4485 14.7402 23.6348 12.5539C28.1348 8.05392 26.7994 2.55398 35.7994 1.05397C40.7314 0.231974 37.7775 9.02576 47.6348 11.9829C52.6348 13.4829 55.1348 11.0539 57.7994 11.0539C64.1348 11.0539 61.6838 13.0956 66.7251 15.0539C71.7664 17.0123 72.194 17.5056 70.6348 21.4829C69.1348 25.3092 66.7251 24.8802 66.7251 24.8802C66.7251 24.8802 64.2781 25.3802 59.5058 25.3802Z" fill="#4A677C"/>
<path d="M59.5058 25.3802H8.44057C5.79937 25.3802 3.9758 21.9821 5.63483 20.4829C8.20909 18.1567 10.7091 16.7144 13.6348 15.9829C17.6348 14.983 21.4485 14.7402 23.6348 12.5539C28.1348 8.05392 26.7994 2.55398 35.7994 1.05397C40.7314 0.231974 37.7775 9.02576 47.6348 11.9829C52.6348 13.4829 55.1348 11.0539 57.7994 11.0539C64.1348 11.0539 61.6838 13.0956 66.7251 15.0539C71.7664 17.0123 72.194 17.5056 70.6348 21.4829C69.1348 25.3092 66.7251 24.8802 66.7251 24.8802C66.7251 24.8802 64.2781 25.3802 59.5058 25.3802Z" stroke="#EBEBEB"/>
</g>
<g filter="url(#filter1_d)">
<path d="M81.4156 50.9829H30.3503C26.236 50.9829 19.5 50.9829 17.6845 47.7969C15.2306 43.4909 12.6349 39.4829 22.1531 34.9883C24.4607 33.8986 34.6152 30.5799 37.59 27.6532C45.2408 20.126 45.4017 22.727 50 20.5C54.9858 18.0853 59.8879 12.9829 70.1792 12.9829C74.0633 12.9829 73.3446 20.092 76.4684 22.3186C81.4156 25.8448 85.6348 22.7811 85.6348 29.9242C85.6348 32.1951 91.532 36.0185 93.6205 40.9898C95.709 45.9611 90.7618 48.9917 90.7618 48.9917C90.7618 48.9917 86.1879 50.9829 81.4156 50.9829Z" fill="#4A677C"/>
<path d="M81.4156 50.9829H30.3503C26.236 50.9829 19.5 50.9829 17.6845 47.7969C15.2306 43.4909 12.6349 39.4829 22.1531 34.9883C24.4607 33.8986 34.6152 30.5799 37.59 27.6532C45.2408 20.126 45.4017 22.727 50 20.5C54.9858 18.0853 59.8879 12.9829 70.1792 12.9829C74.0633 12.9829 73.3446 20.092 76.4684 22.3186C81.4156 25.8448 85.6348 22.7811 85.6348 29.9242C85.6348 32.1951 91.532 36.0185 93.6205 40.9898C95.709 45.9611 90.7618 48.9917 90.7618 48.9917C90.7618 48.9917 86.1879 50.9829 81.4156 50.9829Z" stroke="#EBEBEB"/>
</g>
<path d="M17.5572 28C15.42 32.7368 15.5129 34 17.6501 34C19.4224 34 19.5085 32.7368 17.5572 28Z" fill="#A6C1D4" stroke="#6A6A6A" stroke-width="0.5"/>
<path d="M27.5572 56C25.42 60.7368 25.5129 62 27.6501 62C29.4224 62 29.5085 60.7368 27.5572 56Z" fill="#A6C1D4" stroke="#6A6A6A" stroke-width="0.5"/>
<path d="M37.5572 54C35.42 58.7368 35.5129 60 37.6501 60C39.4224 60 39.5085 58.7368 37.5572 54Z" fill="#A6C1D4" stroke="#6A6A6A" stroke-width="0.5"/>
<path d="M23.0588 28C21.6471 30.8571 21.6471 32 23.0588 32C24.3137 32 24.3137 30.8571 23.0588 28Z" fill="#A6C1D4" stroke="#6A6A6A" stroke-width="0.5"/>
<path d="M13.0381 34C11.6133 37.1579 11.6753 38 13.1001 38C14.2816 38 14.339 37.1579 13.0381 34Z" fill="#A6C1D4" stroke="#6A6A6A" stroke-width="0.5"/>
<path d="M41.7231 69.9829C39.6054 73.5544 39.6054 74.9829 41.7231 74.9829C43.6054 74.9829 43.6054 73.5544 41.7231 69.9829Z" fill="#A6C1D4" stroke="#6A6A6A" stroke-width="0.5"/>
<path d="M33.0588 64C31.6471 66.8571 31.6471 68 33.0588 68C34.3137 68 34.3137 66.8571 33.0588 64Z" fill="#A6C1D4" stroke="#6A6A6A" stroke-width="0.5"/>
<circle cx="69" cy="39" r="1" fill="#C4C4C4"/>
<circle cx="34" cy="16" r="1" fill="#C4C4C4"/>
<path d="M48 67.5L53.5 53H60.5L57.5 61H67.5L52 84.5L56.5 67.5H48Z" fill="#F2C962"/>
<path d="M70 62.127L72.5385 52H75.7692L73.9231 59H78L71.8462 74L73.9231 62.127H70Z" fill="#F2C962"/>
<defs>
<filter id="filter0_d" x="0.500427" y="0.500023" width="75.4348" height="33.3801" filterUnits="userSpaceOnUse" color-interpolation-filters="sRGB">
<feFlood flood-opacity="0" result="BackgroundImageFix"/>
<feColorMatrix in="SourceAlpha" type="matrix" values="0 0 0 0 0 0 0 0 0 0 0 0 0 0 0 0 0 0 127 0"/>
<feOffset dy="4"/>
<feGaussianBlur stdDeviation="2"/>
<feColorMatrix type="matrix" values="0 0 0 0 0 0 0 0 0 0 0 0 0 0 0 0 0 0 0.25 0"/>
<feBlend mode="normal" in2="BackgroundImageFix" result="effect1_dropShadow"/>
<feBlend mode="normal" in="SourceGraphic" in2="effect1_dropShadow" result="shape"/>
</filter>
<filter id="filter1_d" x="10.901" y="12.4829" width="87.7342" height="47" filterUnits="userSpaceOnUse" color-interpolation-filters="sRGB">
<feFlood flood-opacity="0" result="BackgroundImageFix"/>
<feColorMatrix in="SourceAlpha" type="matrix" values="0 0 0 0 0 0 0 0 0 0 0 0 0 0 0 0 0 0 127 0"/>
<feOffset dy="4"/>
<feGaussianBlur stdDeviation="2"/>
<feColorMatrix type="matrix" values="0 0 0 0 0 0 0 0 0 0 0 0 0 0 0 0 0 0 0.25 0"/>
<feBlend mode="normal" in2="BackgroundImageFix" result="effect1_dropShadow"/>
<feBlend mode="normal" in="SourceGraphic" in2="effect1_dropShadow" result="shape"/>
</filter>
</defs>
</svg>
