<svg width="99" height="84" viewBox="0 0 99 84" fill="none" xmlns="http://www.w3.org/2000/svg">
<path d="M72.3612 2.34244C73.1574 1.20442 74.8426 1.20442 75.6388 2.34244L77.7454 5.35361C78.2277 6.04304 79.09 6.35687 79.9026 6.13877L83.4519 5.18618C84.7933 4.82617 86.0843 5.90941 85.9626 7.29295L85.6409 10.9538C85.5672 11.7919 86.026 12.5866 86.7887 12.9418L90.1199 14.4936C91.3789 15.08 91.6715 16.7396 90.6891 17.7213L88.0894 20.3188C87.4943 20.9135 87.3349 21.8172 87.6908 22.5796L89.2453 25.9096C89.8327 27.1681 88.9901 28.6275 87.6065 28.748L83.9454 29.0668C83.1072 29.1398 82.4043 29.7296 82.1869 30.5424L81.2372 34.0925C80.8782 35.4342 79.2947 36.0106 78.1573 35.2135L75.1478 33.1044C74.4588 32.6215 73.5412 32.6215 72.8522 33.1044L69.8427 35.2135C68.7053 36.0106 67.1218 35.4342 66.7628 34.0925L65.8131 30.5424C65.5957 29.7296 64.8928 29.1398 64.0546 29.0668L60.3935 28.748C59.0099 28.6275 58.1673 27.1681 58.7547 25.9096L60.3092 22.5796C60.6651 21.8172 60.5057 20.9135 59.9106 20.3188L57.3109 17.7213C56.3285 16.7396 56.6211 15.08 57.8801 14.4936L61.2113 12.9418C61.974 12.5866 62.4328 11.7919 62.3591 10.9538L62.0374 7.29295C61.9157 5.90941 63.2067 4.82617 64.5481 5.18618L68.0974 6.13877C68.91 6.35687 69.7723 6.04304 70.2546 5.35361L72.3612 2.34244Z" fill="#FFE27D"/>
<circle cx="73.9518" cy="18.9517" r="13.8072" fill="#FFC600" stroke="white"/>
<circle cx="74" cy="19" r="0.422222" fill="#C4C4C4"/>
<g filter="url(#filter0_d)">
<path d="M59.5058 32.3802H8.44057C5.79937 32.3802 3.9758 28.9821 5.63483 27.4829C8.20909 25.1567 10.7091 23.7144 13.6348 22.9829C17.6348 21.983 21.4485 21.7402 23.6348 19.5539C28.1348 15.0539 26.7994 9.55398 35.7994 8.05397C40.7314 7.23197 37.7775 16.0258 47.6348 18.9829C52.6348 20.4829 55.1348 18.0539 57.7994 18.0539C64.1348 18.0539 61.6838 20.0956 66.7251 22.0539C71.7664 24.0123 72.194 24.5056 70.6348 28.4829C69.1348 32.3092 66.7251 31.8802 66.7251 31.8802C66.7251 31.8802 64.2781 32.3802 59.5058 32.3802Z" fill="#7290A2"/>
<path d="M59.5058 32.3802H8.44057C5.79937 32.3802 3.9758 28.9821 5.63483 27.4829C8.20909 25.1567 10.7091 23.7144 13.6348 22.9829C17.6348 21.983 21.4485 21.7402 23.6348 19.5539C28.1348 15.0539 26.7994 9.55398 35.7994 8.05397C40.7314 7.23197 37.7775 16.0258 47.6348 18.9829C52.6348 20.4829 55.1348 18.0539 57.7994 18.0539C64.1348 18.0539 61.6838 20.0956 66.7251 22.0539C71.7664 24.0123 72.194 24.5056 70.6348 28.4829C69.1348 32.3092 66.7251 31.8802 66.7251 31.8802C66.7251 31.8802 64.2781 32.3802 59.5058 32.3802Z" stroke="#EBEBEB"/>
</g>
<g filter="url(#filter1_d)">
<path d="M81.4156 57.9829H30.3504C26.2361 57.9829 20.0138 57.0849 17.6845 54.7969C14.1487 51.3239 12.6349 46.4829 22.1531 41.9883C24.4607 40.8986 34.6153 37.5799 37.59 34.6532C45.2409 27.126 46.7135 39.1512 51.3118 36.9242C56.2976 34.5095 59.8879 19.9829 70.1793 19.9829C74.0633 19.9829 73.3446 27.092 76.4684 29.3186C81.4156 32.8448 85.6349 29.7811 85.6349 36.9242C85.6349 39.1951 91.532 43.0185 93.6206 47.9898C95.7091 52.9611 90.7618 55.9918 90.7618 55.9918C90.7618 55.9918 86.1879 57.9829 81.4156 57.9829Z" fill="#7290A2"/>
<path d="M81.4156 57.9829H30.3504C26.2361 57.9829 20.0138 57.0849 17.6845 54.7969C14.1487 51.3239 12.6349 46.4829 22.1531 41.9883C24.4607 40.8986 34.6153 37.5799 37.59 34.6532C45.2409 27.126 46.7135 39.1512 51.3118 36.9242C56.2976 34.5095 59.8879 19.9829 70.1793 19.9829C74.0633 19.9829 73.3446 27.092 76.4684 29.3186C81.4156 32.8448 85.6349 29.7811 85.6349 36.9242C85.6349 39.1951 91.532 43.0185 93.6206 47.9898C95.7091 52.9611 90.7618 55.9918 90.7618 55.9918C90.7618 55.9918 86.1879 57.9829 81.4156 57.9829Z" stroke="#EBEBEB"/>
</g>
<path d="M64.56 66V64M64.56 62V64M64.56 64H63H64.5M64.56 64L63.25 65L64.5 64M64.56 64L65.75 65L64.5 64M66 64H64.5M64.5 64L65.75 62.75M64.5 64L63.25 62.75" stroke="#D3D3D3" stroke-width="0.7"/>
<path d="M11.12 44.7766V40.7766M11.12 37V40.7766M11.12 40.7766H8H11M11.12 40.7766L9.5 42.2766L11 40.7766M11.12 40.7766L13.04 42.5697L11 40.7766M14.5 40.7766H11M11 40.7766L12.5 39.2766M11 40.7766L9.5 39.2766" stroke="#D3D3D3"/>
<path d="M71.5 75L72.12 71.7766M73.5 68L72.12 71.7766M72.12 71.7766H69H72M72.12 71.7766L69 74L72 71.7766M72.12 71.7766L74.5 74.5L72 71.7766M75.5 71.7766H72M72 71.7766L74.5 70M72 71.7766L71.5 68.5" stroke="#D3D3D3"/>
<path d="M38.56 67V65M38.56 63V65M38.56 65H37H38.5M38.56 65L37.25 66L38.5 65M38.56 65L39.75 66L38.5 65M40 65H38.5M38.5 65L39.75 63.75M38.5 65L37.25 63.75" stroke="#D3D3D3" stroke-width="0.7"/>
<path d="M52.56 83V81M52.56 79V81M52.56 81H51H52.5M52.56 81L51.25 82L52.5 81M52.56 81L53.75 82L52.5 81M54 81H52.5M52.5 81L53.75 79.75M52.5 81L51.25 79.75" stroke="#D3D3D3" stroke-width="0.7"/>
<path d="M41.56 78V76M41.56 74V76M41.56 76H40H41.5M41.56 76L40.25 77L41.5 76M41.56 76L42.75 77L41.5 76M43 76H41.5M41.5 76L42.75 74.75M41.5 76L40.25 74.75" stroke="#D3D3D3" stroke-width="0.7"/>
<circle cx="36" cy="23" r="1" fill="#C4C4C4"/>
<circle cx="65" cy="45" r="1" fill="#C4C4C4"/>
<path d="M29.5572 63C27.42 67.7368 27.5129 69 29.6501 69C31.4224 69 31.5085 67.7368 29.5572 63Z" fill="#A6C1D4" stroke="#6A6A6A" stroke-width="0.5"/>
<path d="M53.5572 66C51.42 69.1579 51.5129 70 53.6501 70C55.4224 70 55.5085 69.1579 53.5572 66Z" fill="#A6C1D4" stroke="#6A6A6A" stroke-width="0.5"/>
<path d="M85.0381 60C83.6133 64.7368 83.6753 66 85.1001 66C86.2816 66 86.339 64.7368 85.0381 60Z" fill="#A6C1D4" stroke="#6A6A6A" stroke-width="0.5"/>
<path d="M21.0381 62C19.6133 65.1579 19.6753 66 21.1001 66C22.2816 66 22.339 65.1579 21.0381 62Z" fill="#A6C1D4" stroke="#6A6A6A" stroke-width="0.5"/>
<path d="M23.5572 35C21.42 38.1579 21.5129 39 23.6501 39C25.4224 39 25.5085 38.1579 23.5572 35Z" fill="#A6C1D4" stroke="#6A6A6A" stroke-width="0.5"/>
<path d="M63.5572 79C61.42 82.1579 61.5129 83 63.6501 83C65.4224 83 65.5085 82.1579 63.5572 79Z" fill="#A6C1D4" stroke="#6A6A6A" stroke-width="0.5"/>
<defs>
<filter id="filter0_d" x="0.500366" y="7.50002" width="75.4348" height="33.3801" filterUnits="userSpaceOnUse" color-interpolation-filters="sRGB">
<feFlood flood-opacity="0" result="BackgroundImageFix"/>
<feColorMatrix in="SourceAlpha" type="matrix" values="0 0 0 0 0 0 0 0 0 0 0 0 0 0 0 0 0 0 127 0"/>
<feOffset dy="4"/>
<feGaussianBlur stdDeviation="2"/>
<feColorMatrix type="matrix" values="0 0 0 0 0 0 0 0 0 0 0 0 0 0 0 0 0 0 0.25 0"/>
<feBlend mode="normal" in2="BackgroundImageFix" result="effect1_dropShadow"/>
<feBlend mode="normal" in="SourceGraphic" in2="effect1_dropShadow" result="shape"/>
</filter>
<filter id="filter1_d" x="10.4587" y="19.4829" width="88.1765" height="47" filterUnits="userSpaceOnUse" color-interpolation-filters="sRGB">
<feFlood flood-opacity="0" result="BackgroundImageFix"/>
<feColorMatrix in="SourceAlpha" type="matrix" values="0 0 0 0 0 0 0 0 0 0 0 0 0 0 0 0 0 0 127 0"/>
<feOffset dy="4"/>
<feGaussianBlur stdDeviation="2"/>
<feColorMatrix type="matrix" values="0 0 0 0 0 0 0 0 0 0 0 0 0 0 0 0 0 0 0.25 0"/>
<feBlend mode="normal" in2="BackgroundImageFix" result="effect1_dropShadow"/>
<feBlend mode="normal" in="SourceGraphic" in2="effect1_dropShadow" result="shape"/>
</filter>
</defs>
</svg>
