<svg width="99" height="82" viewBox="0 0 99 82" fill="none" xmlns="http://www.w3.org/2000/svg">
<path d="M74.3612 2.34244C75.1574 1.20442 76.8426 1.20442 77.6388 2.34244L79.7454 5.35361C80.2277 6.04304 81.09 6.35687 81.9026 6.13877L85.4519 5.18618C86.7933 4.82617 88.0843 5.90941 87.9626 7.29295L87.6409 10.9538C87.5672 11.7919 88.026 12.5866 88.7887 12.9418L92.1199 14.4936C93.3789 15.08 93.6715 16.7396 92.6891 17.7213L90.0894 20.3188C89.4943 20.9135 89.3349 21.8172 89.6908 22.5796L91.2453 25.9096C91.8327 27.1681 90.9901 28.6275 89.6065 28.748L85.9454 29.0668C85.1072 29.1398 84.4043 29.7296 84.1869 30.5424L83.2372 34.0925C82.8782 35.4342 81.2947 36.0106 80.1573 35.2135L77.1478 33.1044C76.4588 32.6215 75.5412 32.6215 74.8522 33.1044L71.8427 35.2135C70.7053 36.0106 69.1218 35.4342 68.7628 34.0925L67.8131 30.5424C67.5957 29.7296 66.8928 29.1398 66.0546 29.0668L62.3935 28.748C61.0099 28.6275 60.1673 27.1681 60.7547 25.9096L62.3092 22.5796C62.6651 21.8172 62.5057 20.9135 61.9106 20.3188L59.3109 17.7213C58.3285 16.7396 58.6211 15.08 59.8801 14.4936L63.2113 12.9418C63.974 12.5866 64.4328 11.7919 64.3591 10.9538L64.0374 7.29295C63.9157 5.90941 65.2067 4.82617 66.5481 5.18618L70.0974 6.13877C70.91 6.35687 71.7723 6.04304 72.2546 5.35361L74.3612 2.34244Z" fill="#FFE27D"/>
<circle cx="75.9518" cy="18.9517" r="13.8072" fill="#FFC600" stroke="white"/>
<circle cx="76" cy="19" r="0.422222" fill="#C4C4C4"/>
<g filter="url(#filter0_d)">
<path d="M59.5058 31.3802H8.44057C5.79937 31.3802 3.9758 27.9821 5.63483 26.4829C8.20909 24.1567 10.7091 22.7144 13.6348 21.9829C17.6348 20.983 21.4485 20.7402 23.6348 18.5539C28.1348 14.0539 26.7994 8.55398 35.7994 7.05397C40.7314 6.23197 37.7775 15.0258 47.6348 17.9829C52.6348 19.4829 55.1348 17.0539 57.7994 17.0539C64.1348 17.0539 61.6838 19.0956 66.7251 21.0539C71.7664 23.0123 72.194 23.5056 70.6348 27.4829C69.1348 31.3092 66.7251 30.8802 66.7251 30.8802C66.7251 30.8802 64.2781 31.3802 59.5058 31.3802Z" fill="#7F898E"/>
<path d="M59.5058 31.3802H8.44057C5.79937 31.3802 3.9758 27.9821 5.63483 26.4829C8.20909 24.1567 10.7091 22.7144 13.6348 21.9829C17.6348 20.983 21.4485 20.7402 23.6348 18.5539C28.1348 14.0539 26.7994 8.55398 35.7994 7.05397C40.7314 6.23197 37.7775 15.0258 47.6348 17.9829C52.6348 19.4829 55.1348 17.0539 57.7994 17.0539C64.1348 17.0539 61.6838 19.0956 66.7251 21.0539C71.7664 23.0123 72.194 23.5056 70.6348 27.4829C69.1348 31.3092 66.7251 30.8802 66.7251 30.8802C66.7251 30.8802 64.2781 31.3802 59.5058 31.3802Z" stroke="#EBEBEB"/>
</g>
<g filter="url(#filter1_d)">
<path d="M81.4156 56.9829H30.3504C26.2361 56.9829 20.0138 56.0849 17.6845 53.7969C14.1487 50.3239 12.6349 45.4829 22.1531 40.9883C24.4607 39.8986 34.6153 36.5799 37.59 33.6532C45.2409 26.126 46.7135 38.1512 51.3118 35.9242C56.2976 33.5095 59.8879 18.9829 70.1793 18.9829C74.0633 18.9829 73.3446 26.092 76.4684 28.3186C81.4156 31.8448 85.6349 28.7811 85.6349 35.9242C85.6349 38.1951 91.532 42.0185 93.6206 46.9898C95.7091 51.9611 90.7618 54.9918 90.7618 54.9918C90.7618 54.9918 86.1879 56.9829 81.4156 56.9829Z" fill="#7F898E"/>
<path d="M81.4156 56.9829H30.3504C26.2361 56.9829 20.0138 56.0849 17.6845 53.7969C14.1487 50.3239 12.6349 45.4829 22.1531 40.9883C24.4607 39.8986 34.6153 36.5799 37.59 33.6532C45.2409 26.126 46.7135 38.1512 51.3118 35.9242C56.2976 33.5095 59.8879 18.9829 70.1793 18.9829C74.0633 18.9829 73.3446 26.092 76.4684 28.3186C81.4156 31.8448 85.6349 28.7811 85.6349 35.9242C85.6349 38.1951 91.532 42.0185 93.6206 46.9898C95.7091 51.9611 90.7618 54.9918 90.7618 54.9918C90.7618 54.9918 86.1879 56.9829 81.4156 56.9829Z" stroke="#EBEBEB"/>
</g>
<path d="M64.56 65V63M64.56 61V63M64.56 63H63H64.5M64.56 63L63.25 64L64.5 63M64.56 63L65.75 64L64.5 63M66 63H64.5M64.5 63L65.75 61.75M64.5 63L63.25 61.75" stroke="#D3D3D3" stroke-width="0.7"/>
<path d="M11.12 43.7766V39.7766M11.12 36V39.7766M11.12 39.7766H8H11M11.12 39.7766L9.5 41.2766L11 39.7766M11.12 39.7766L13.04 41.5697L11 39.7766M14.5 39.7766H11M11 39.7766L12.5 38.2766M11 39.7766L9.5 38.2766" stroke="#D3D3D3"/>
<path d="M71.5 74L72.12 70.7766M73.5 67L72.12 70.7766M72.12 70.7766H69H72M72.12 70.7766L69 73L72 70.7766M72.12 70.7766L74.5 73.5L72 70.7766M75.5 70.7766H72M72 70.7766L74.5 69M72 70.7766L71.5 67.5" stroke="#D3D3D3"/>
<path d="M52.5 70L53.12 66.7766M54.5 63L53.12 66.7766M53.12 66.7766H50H53M53.12 66.7766L50 69L53 66.7766M53.12 66.7766L55.5 69.5L53 66.7766M56.5 66.7766H53M53 66.7766L55.5 65M53 66.7766L52.5 63.5" stroke="#D3D3D3"/>
<path d="M38.56 66V64M38.56 62V64M38.56 64H37H38.5M38.56 64L37.25 65L38.5 64M38.56 64L39.75 65L38.5 64M40 64H38.5M38.5 64L39.75 62.75M38.5 64L37.25 62.75" stroke="#D3D3D3" stroke-width="0.7"/>
<path d="M21.56 38V36M21.56 34V36M21.56 36H20H21.5M21.56 36L20.25 37L21.5 36M21.56 36L22.75 37L21.5 36M23 36H21.5M21.5 36L22.75 34.75M21.5 36L20.25 34.75" stroke="#D3D3D3" stroke-width="0.7"/>
<path d="M46.56 65V63M46.56 61V63M46.56 63H45H46.5M46.56 63L45.25 64L46.5 63M46.56 63L47.75 64L46.5 63M48 63H46.5M46.5 63L47.75 61.75M46.5 63L45.25 61.75" stroke="#D3D3D3" stroke-width="0.7"/>
<path d="M52.56 82V80M52.56 78V80M52.56 80H51H52.5M52.56 80L51.25 81L52.5 80M52.56 80L53.75 81L52.5 80M54 80H52.5M52.5 80L53.75 78.75M52.5 80L51.25 78.75" stroke="#D3D3D3" stroke-width="0.7"/>
<path d="M41.56 77V75M41.56 73V75M41.56 75H40H41.5M41.56 75L40.25 76L41.5 75M41.56 75L42.75 76L41.5 75M43 75H41.5M41.5 75L42.75 73.75M41.5 75L40.25 73.75" stroke="#D3D3D3" stroke-width="0.7"/>
<circle cx="36" cy="22" r="1" fill="#C4C4C4"/>
<circle cx="65" cy="44" r="1" fill="#C4C4C4"/>
<defs>
<filter id="filter0_d" x="0.500366" y="6.50002" width="75.4348" height="33.3801" filterUnits="userSpaceOnUse" color-interpolation-filters="sRGB">
<feFlood flood-opacity="0" result="BackgroundImageFix"/>
<feColorMatrix in="SourceAlpha" type="matrix" values="0 0 0 0 0 0 0 0 0 0 0 0 0 0 0 0 0 0 127 0"/>
<feOffset dy="4"/>
<feGaussianBlur stdDeviation="2"/>
<feColorMatrix type="matrix" values="0 0 0 0 0 0 0 0 0 0 0 0 0 0 0 0 0 0 0.25 0"/>
<feBlend mode="normal" in2="BackgroundImageFix" result="effect1_dropShadow"/>
<feBlend mode="normal" in="SourceGraphic" in2="effect1_dropShadow" result="shape"/>
</filter>
<filter id="filter1_d" x="10.4587" y="18.4829" width="88.1765" height="47" filterUnits="userSpaceOnUse" color-interpolation-filters="sRGB">
<feFlood flood-opacity="0" result="BackgroundImageFix"/>
<feColorMatrix in="SourceAlpha" type="matrix" values="0 0 0 0 0 0 0 0 0 0 0 0 0 0 0 0 0 0 127 0"/>
<feOffset dy="4"/>
<feGaussianBlur stdDeviation="2"/>
<feColorMatrix type="matrix" values="0 0 0 0 0 0 0 0 0 0 0 0 0 0 0 0 0 0 0.25 0"/>
<feBlend mode="normal" in2="BackgroundImageFix" result="effect1_dropShadow"/>
<feBlend mode="normal" in="SourceGraphic" in2="effect1_dropShadow" result="shape"/>
</filter>
</defs>
</svg>
