<svg width="99" height="82" viewBox="0 0 99 82" fill="none" xmlns="http://www.w3.org/2000/svg">
<g filter="url(#filter0_d)">
<path d="M59.5058 25.3802H8.44057C5.79937 25.3802 3.9758 21.9821 5.63483 20.4829C8.20909 18.1567 10.7091 16.7144 13.6348 15.9829C17.6348 14.983 21.4485 14.7402 23.6348 12.5539C28.1348 8.05392 26.7994 2.55398 35.7994 1.05397C40.7314 0.231974 37.7775 9.02576 47.6348 11.9829C52.6348 13.4829 55.1348 11.0539 57.7994 11.0539C64.1348 11.0539 61.6838 13.0956 66.7251 15.0539C71.7664 17.0123 72.194 17.5056 70.6348 21.4829C69.1348 25.3092 66.7251 24.8802 66.7251 24.8802C66.7251 24.8802 64.2781 25.3802 59.5058 25.3802Z" fill="#ACB4B9"/>
<path d="M59.5058 25.3802H8.44057C5.79937 25.3802 3.9758 21.9821 5.63483 20.4829C8.20909 18.1567 10.7091 16.7144 13.6348 15.9829C17.6348 14.983 21.4485 14.7402 23.6348 12.5539C28.1348 8.05392 26.7994 2.55398 35.7994 1.05397C40.7314 0.231974 37.7775 9.02576 47.6348 11.9829C52.6348 13.4829 55.1348 11.0539 57.7994 11.0539C64.1348 11.0539 61.6838 13.0956 66.7251 15.0539C71.7664 17.0123 72.194 17.5056 70.6348 21.4829C69.1348 25.3092 66.7251 24.8802 66.7251 24.8802C66.7251 24.8802 64.2781 25.3802 59.5058 25.3802Z" stroke="#EBEBEB"/>
</g>
<g filter="url(#filter1_d)">
<path d="M81.4156 50.9829H30.3504C26.2361 50.9829 20.0138 50.0849 17.6845 47.7969C14.1487 44.3239 12.6349 39.4829 22.1531 34.9883C24.4607 33.8986 34.6153 30.5799 37.59 27.6532C45.2409 20.126 46.7135 32.1512 51.3118 29.9242C56.2976 27.5095 59.8879 12.9829 70.1793 12.9829C74.0633 12.9829 73.3446 20.092 76.4684 22.3186C81.4156 25.8448 85.6349 22.7811 85.6349 29.9242C85.6349 32.1951 91.532 36.0185 93.6206 40.9898C95.7091 45.9611 90.7618 48.9918 90.7618 48.9918C90.7618 48.9918 86.1879 50.9829 81.4156 50.9829Z" fill="#ACB4B9"/>
<path d="M81.4156 50.9829H30.3504C26.2361 50.9829 20.0138 50.0849 17.6845 47.7969C14.1487 44.3239 12.6349 39.4829 22.1531 34.9883C24.4607 33.8986 34.6153 30.5799 37.59 27.6532C45.2409 20.126 46.7135 32.1512 51.3118 29.9242C56.2976 27.5095 59.8879 12.9829 70.1793 12.9829C74.0633 12.9829 73.3446 20.092 76.4684 22.3186C81.4156 25.8448 85.6349 22.7811 85.6349 29.9242C85.6349 32.1951 91.532 36.0185 93.6206 40.9898C95.7091 45.9611 90.7618 48.9918 90.7618 48.9918C90.7618 48.9918 86.1879 50.9829 81.4156 50.9829Z" stroke="#EBEBEB"/>
</g>
<path d="M48.6919 55.9829C46.5548 60.7198 46.6477 61.9829 48.7848 61.9829C50.5572 61.9829 50.6433 60.7198 48.6919 55.9829Z" fill="#A6C1D4" stroke="#6A6A6A" stroke-width="0.5"/>
<path d="M66.5882 62C64.4706 65.5714 64.4706 67 66.5882 67C68.4706 67 68.4706 65.5714 66.5882 62Z" fill="#A6C1D4" stroke="#6A6A6A" stroke-width="0.5"/>
<path d="M22.1936 27.9829C20.7818 30.8401 20.7818 31.9829 22.1936 31.9829C23.4485 31.9829 23.4485 30.8401 22.1936 27.9829Z" fill="#A6C1D4" stroke="#6A6A6A" stroke-width="0.5"/>
<path d="M53.6919 74.9829C51.5548 79.7198 51.6477 80.9829 53.7848 80.9829C55.5572 80.9829 55.6433 79.7198 53.6919 74.9829Z" fill="#A6C1D4" stroke="#6A6A6A" stroke-width="0.5"/>
<path d="M33.5882 61C31.4706 64.5714 31.4706 66 33.5882 66C35.4706 66 35.4706 64.5714 33.5882 61Z" fill="#A6C1D4" stroke="#6A6A6A" stroke-width="0.5"/>
<defs>
<filter id="filter0_d" x="0.500366" y="0.500015" width="75.4348" height="33.3801" filterUnits="userSpaceOnUse" color-interpolation-filters="sRGB">
<feFlood flood-opacity="0" result="BackgroundImageFix"/>
<feColorMatrix in="SourceAlpha" type="matrix" values="0 0 0 0 0 0 0 0 0 0 0 0 0 0 0 0 0 0 127 0"/>
<feOffset dy="4"/>
<feGaussianBlur stdDeviation="2"/>
<feColorMatrix type="matrix" values="0 0 0 0 0 0 0 0 0 0 0 0 0 0 0 0 0 0 0.25 0"/>
<feBlend mode="normal" in2="BackgroundImageFix" result="effect1_dropShadow"/>
<feBlend mode="normal" in="SourceGraphic" in2="effect1_dropShadow" result="shape"/>
</filter>
<filter id="filter1_d" x="10.4587" y="12.4829" width="88.1765" height="47" filterUnits="userSpaceOnUse" color-interpolation-filters="sRGB">
<feFlood flood-opacity="0" result="BackgroundImageFix"/>
<feColorMatrix in="SourceAlpha" type="matrix" values="0 0 0 0 0 0 0 0 0 0 0 0 0 0 0 0 0 0 127 0"/>
<feOffset dy="4"/>
<feGaussianBlur stdDeviation="2"/>
<feColorMatrix type="matrix" values="0 0 0 0 0 0 0 0 0 0 0 0 0 0 0 0 0 0 0.25 0"/>
<feBlend mode="normal" in2="BackgroundImageFix" result="effect1_dropShadow"/>
<feBlend mode="normal" in="SourceGraphic" in2="effect1_dropShadow" result="shape"/>
</filter>
</defs>
</svg>
