<svg width="99" height="82" viewBox="0 0 99 82" fill="none" xmlns="http://www.w3.org/2000/svg">
<g filter="url(#filter0_d)">
<path d="M59.5058 25.3802H8.44057C5.79937 25.3802 3.9758 21.9821 5.63483 20.4829C8.20909 18.1567 10.7091 16.7144 13.6348 15.9829C17.6348 14.983 21.4485 14.7402 23.6348 12.5539C28.1348 8.05392 26.7994 2.55398 35.7994 1.05397C40.7314 0.231974 37.7775 9.02576 47.6348 11.9829C52.6348 13.4829 55.1348 11.0539 57.7994 11.0539C64.1348 11.0539 61.6838 13.0956 66.7251 15.0539C71.7664 17.0123 72.194 17.5056 70.6348 21.4829C69.1348 25.3092 66.7251 24.8802 66.7251 24.8802C66.7251 24.8802 64.2781 25.3802 59.5058 25.3802Z" fill="#7C8F9D"/>
<path d="M59.5058 25.3802H8.44057C5.79937 25.3802 3.9758 21.9821 5.63483 20.4829C8.20909 18.1567 10.7091 16.7144 13.6348 15.9829C17.6348 14.983 21.4485 14.7402 23.6348 12.5539C28.1348 8.05392 26.7994 2.55398 35.7994 1.05397C40.7314 0.231974 37.7775 9.02576 47.6348 11.9829C52.6348 13.4829 55.1348 11.0539 57.7994 11.0539C64.1348 11.0539 61.6838 13.0956 66.7251 15.0539C71.7664 17.0123 72.194 17.5056 70.6348 21.4829C69.1348 25.3092 66.7251 24.8802 66.7251 24.8802C66.7251 24.8802 64.2781 25.3802 59.5058 25.3802Z" stroke="#EBEBEB"/>
</g>
<g filter="url(#filter1_d)">
<path d="M81.4155 50.9829H30.3503C26.236 50.9829 20.0138 50.0849 17.6844 47.7969C14.1486 44.3239 12.6348 39.4829 22.1531 34.9883C24.4607 33.8986 34.6152 30.5799 37.59 27.6532C45.2408 20.126 46.7135 32.1512 51.3118 29.9242C56.2975 27.5095 59.8879 12.9829 70.1792 12.9829C74.0632 12.9829 73.3446 20.092 76.4683 22.3186C81.4156 25.8448 85.6348 22.7811 85.6348 29.9242C85.6348 32.1951 91.532 36.0185 93.6205 40.9898C95.709 45.9611 90.7617 48.9917 90.7617 48.9917C90.7617 48.9917 86.1879 50.9829 81.4155 50.9829Z" fill="#7C8F9D"/>
<path d="M81.4155 50.9829H30.3503C26.236 50.9829 20.0138 50.0849 17.6844 47.7969C14.1486 44.3239 12.6348 39.4829 22.1531 34.9883C24.4607 33.8986 34.6152 30.5799 37.59 27.6532C45.2408 20.126 46.7135 32.1512 51.3118 29.9242C56.2975 27.5095 59.8879 12.9829 70.1792 12.9829C74.0632 12.9829 73.3446 20.092 76.4683 22.3186C81.4156 25.8448 85.6348 22.7811 85.6348 29.9242C85.6348 32.1951 91.532 36.0185 93.6205 40.9898C95.709 45.9611 90.7617 48.9917 90.7617 48.9917C90.7617 48.9917 86.1879 50.9829 81.4155 50.9829Z" stroke="#EBEBEB"/>
</g>
<path d="M34.692 55.9829C32.5548 60.7198 32.6478 61.9829 34.7849 61.9829C36.5572 61.9829 36.6433 60.7198 34.692 55.9829Z" fill="#A6C1D4" stroke="#6A6A6A" stroke-width="0.5"/>
<path d="M48.692 55.9829C46.5548 60.7198 46.6477 61.9829 48.7849 61.9829C50.5572 61.9829 50.6433 60.7198 48.692 55.9829Z" fill="#A6C1D4" stroke="#6A6A6A" stroke-width="0.5"/>
<path d="M69.7231 58.9829C67.6054 62.5544 67.6054 63.9829 69.7231 63.9829C71.6054 63.9829 71.6054 62.5544 69.7231 58.9829Z" fill="#A6C1D4" stroke="#6A6A6A" stroke-width="0.5"/>
<path d="M22.1936 27.9829C20.7819 30.8401 20.7819 31.9829 22.1936 31.9829C23.4486 31.9829 23.4485 30.8401 22.1936 27.9829Z" fill="#A6C1D4" stroke="#6A6A6A" stroke-width="0.5"/>
<path d="M53.692 74.9829C51.5548 79.7198 51.6477 80.9829 53.7849 80.9829C55.5572 80.9829 55.6433 79.7198 53.692 74.9829Z" fill="#A6C1D4" stroke="#6A6A6A" stroke-width="0.5"/>
<path d="M59.692 61.9829C57.5548 68.2987 57.6477 69.9829 59.7849 69.9829C61.5572 69.9829 61.6433 68.2987 59.692 61.9829Z" fill="#A6C1D4" stroke="#6A6A6A" stroke-width="0.5"/>
<path d="M79.692 54.9829C77.5548 61.2987 77.6477 62.9829 79.7849 62.9829C81.5572 62.9829 81.6433 61.2987 79.692 54.9829Z" fill="#A6C1D4" stroke="#6A6A6A" stroke-width="0.5"/>
<path d="M13.1729 30.9829C11.7482 34.1408 11.8101 34.9829 13.2349 34.9829C14.4164 34.9829 14.4738 34.1408 13.1729 30.9829Z" fill="#A6C1D4" stroke="#6A6A6A" stroke-width="0.5"/>
<path d="M41.7231 69.9829C39.6054 73.5544 39.6054 74.9829 41.7231 74.9829C43.6054 74.9829 43.6054 73.5544 41.7231 69.9829Z" fill="#A6C1D4" stroke="#6A6A6A" stroke-width="0.5"/>
<circle cx="69" cy="39" r="1" fill="#C4C4C4"/>
<circle cx="34" cy="16" r="1" fill="#C4C4C4"/>
<defs>
<filter id="filter0_d" x="0.500397" y="0.500023" width="75.4348" height="33.3801" filterUnits="userSpaceOnUse" color-interpolation-filters="sRGB">
<feFlood flood-opacity="0" result="BackgroundImageFix"/>
<feColorMatrix in="SourceAlpha" type="matrix" values="0 0 0 0 0 0 0 0 0 0 0 0 0 0 0 0 0 0 127 0"/>
<feOffset dy="4"/>
<feGaussianBlur stdDeviation="2"/>
<feColorMatrix type="matrix" values="0 0 0 0 0 0 0 0 0 0 0 0 0 0 0 0 0 0 0.25 0"/>
<feBlend mode="normal" in2="BackgroundImageFix" result="effect1_dropShadow"/>
<feBlend mode="normal" in="SourceGraphic" in2="effect1_dropShadow" result="shape"/>
</filter>
<filter id="filter1_d" x="10.4587" y="12.4829" width="88.1765" height="47" filterUnits="userSpaceOnUse" color-interpolation-filters="sRGB">
<feFlood flood-opacity="0" result="BackgroundImageFix"/>
<feColorMatrix in="SourceAlpha" type="matrix" values="0 0 0 0 0 0 0 0 0 0 0 0 0 0 0 0 0 0 127 0"/>
<feOffset dy="4"/>
<feGaussianBlur stdDeviation="2"/>
<feColorMatrix type="matrix" values="0 0 0 0 0 0 0 0 0 0 0 0 0 0 0 0 0 0 0.25 0"/>
<feBlend mode="normal" in2="BackgroundImageFix" result="effect1_dropShadow"/>
<feBlend mode="normal" in="SourceGraphic" in2="effect1_dropShadow" result="shape"/>
</filter>
</defs>
</svg>
