<svg width="117" height="95" viewBox="0 0 117 95" fill="none" xmlns="http://www.w3.org/2000/svg">
<g id="Nearly clear sky 2" filter="url(#filter0_d)">
<path id="Star 1" d="M53.3612 2.34244C54.1574 1.20442 55.8426 1.20442 56.6388 2.34244L64.9702 14.2512C65.4525 14.9406 66.3147 15.2545 67.1274 15.0364L81.1644 11.269C82.5058 10.909 83.7967 11.9923 83.6751 13.3758L82.4025 27.8538C82.3289 28.6919 82.7876 29.4866 83.5503 29.8418L96.7249 35.9787C97.9839 36.5652 98.2765 38.2248 97.2941 39.2065L87.0129 49.4792C86.4178 50.0739 86.2584 50.9776 86.6143 51.74L92.7619 64.9096C93.3494 66.1681 92.5068 67.6275 91.1232 67.748L76.6442 69.0088C75.8059 69.0818 75.103 69.6716 74.8856 70.4844L71.1297 84.5245C70.7708 85.8662 69.1872 86.4426 68.0498 85.6455L56.1478 77.3044C55.4588 76.8215 54.5412 76.8215 53.8522 77.3044L41.9502 85.6455C40.8128 86.4426 39.2292 85.8662 38.8703 84.5245L35.1144 70.4844C34.897 69.6716 34.1941 69.0818 33.3558 69.0088L18.8769 67.748C17.4932 67.6275 16.6506 66.1681 17.2381 64.9096L23.3857 51.74C23.7416 50.9776 23.5822 50.0739 22.9871 49.4792L12.7059 39.2065C11.7235 38.2248 12.0161 36.5652 13.2751 35.9787L26.4497 29.8418C27.2124 29.4866 27.6711 28.6919 27.5975 27.8538L26.3249 13.3758C26.2033 11.9923 27.4942 10.909 28.8356 11.269L42.8726 15.0364C43.6853 15.2545 44.5475 14.9406 45.0298 14.2512L53.3612 2.34244Z" fill="#FFE27D"/>
<circle id="Ellipse 1" cx="54.8856" cy="44.8856" r="33.3856" fill="#FFC600" stroke="white"/>
<circle id="midPointSun" cx="55" cy="45" r="1" fill="#C4C4C4"/>
<path id="Cloud 4" d="M98.2064 28.8263H47.1412C44.9257 27.3263 40.6369 28.1679 42.4257 26.8263C44.4257 25.3263 45.4255 23.8263 53.4257 21.8263C57.4257 20.8263 54.9257 24.3263 60.4257 20.8263C69.4806 15.0641 68.9257 23.3263 77.9257 21.8263C82.8577 21.0043 79.4643 10.9683 87.9257 16.8263C94.4257 21.3263 94.3019 17.5998 97.4257 19.8263C102.373 23.3525 99.9257 17.8263 104.426 20.8263C109.676 24.3263 106.926 22.8263 110.926 24.3263C115.975 26.2196 105.426 28.3263 105.426 28.3263C105.426 28.3263 102.979 28.8263 98.2064 28.8263Z" fill="white" fill-opacity="0.7" stroke="#EBEBEB"/>
<path id="Cloud 5" d="M61.2064 68.8263H10.1412C7.92568 67.3263 3.63687 68.1679 5.4257 66.8263C7.42566 65.3263 8.4255 63.8263 16.4257 61.8263C20.4257 60.8263 17.9257 64.3263 23.4257 60.8263C32.4806 55.0641 31.9257 63.3263 40.9257 61.8263C45.8577 61.0043 42.4643 50.9683 50.9257 56.8263C57.4257 61.3263 57.3019 57.5998 60.4257 59.8263C65.3729 63.3525 62.9257 57.8263 67.4257 60.8263C72.6757 64.3263 69.9257 62.8263 73.9257 64.3263C78.9746 66.2196 68.4257 68.3263 68.4257 68.3263C68.4257 68.3263 65.9787 68.8263 61.2064 68.8263Z" fill="white" fill-opacity="0.7" stroke="#EBEBEB"/>
</g>
<defs>
<filter id="filter0_d" x="0.499939" y="1.48892" width="116.294" height="92.52" filterUnits="userSpaceOnUse" color-interpolation-filters="sRGB">
<feFlood flood-opacity="0" result="BackgroundImageFix"/>
<feColorMatrix in="SourceAlpha" type="matrix" values="0 0 0 0 0 0 0 0 0 0 0 0 0 0 0 0 0 0 127 0"/>
<feOffset dy="4"/>
<feGaussianBlur stdDeviation="2"/>
<feColorMatrix type="matrix" values="0 0 0 0 0 0 0 0 0 0 0 0 0 0 0 0 0 0 0.25 0"/>
<feBlend mode="normal" in2="BackgroundImageFix" result="effect1_dropShadow"/>
<feBlend mode="normal" in="SourceGraphic" in2="effect1_dropShadow" result="shape"/>
</filter>
</defs>
</svg>
