<svg width="67" height="47" viewBox="0 0 67 47" fill="none" xmlns="http://www.w3.org/2000/svg">
<path d="M22 30.8095L25.6667 17H30.3333L28.3333 24.619H35L24.6667 47L27.6667 30.8095H22Z" fill="#F2C962"/>
<path d="M43 26.6447L45.129 17H47.8387L46.2903 23.6667H49.7097L44.5484 37.9524L46.2903 26.6447H43Z" fill="#F2C962"/>
<g filter="url(#filter0_d)">
<path d="M50.5767 15H9.16889C7.37238 13.4812 3.89466 14.3334 5.34519 12.9749C6.96692 11.456 7.77767 9.93718 14.2649 7.91204C17.5084 6.8995 15.4812 10.4435 19.941 6.89949C27.2835 1.06492 26.8335 9.4309 34.1314 7.91204C38.1307 7.07971 35.379 -3.08234 42.2402 2.84921C47.5109 7.40577 47.4106 3.63242 49.9436 5.88692C53.9552 9.45744 51.9708 3.86179 55.6197 6.89949C59.8768 10.4435 57.647 8.9246 60.8905 10.4435C64.9845 12.3606 56.4307 14.4937 56.4307 14.4937C56.4307 14.4937 54.4464 15 50.5767 15Z" fill="white"/>
<path d="M50.5767 15H9.16889C7.37238 13.4812 3.89466 14.3334 5.34519 12.9749C6.96692 11.456 7.77767 9.93718 14.2649 7.91204C17.5084 6.8995 15.4812 10.4435 19.941 6.89949C27.2835 1.06492 26.8335 9.4309 34.1314 7.91204C38.1307 7.07971 35.379 -3.08234 42.2402 2.84921C47.5109 7.40577 47.4106 3.63242 49.9436 5.88692C53.9552 9.45744 51.9708 3.86179 55.6197 6.89949C59.8768 10.4435 57.647 8.9246 60.8905 10.4435C64.9845 12.3606 56.4307 14.4937 56.4307 14.4937C56.4307 14.4937 54.4464 15 50.5767 15Z" stroke="#EBEBEB"/>
</g>
<defs>
<filter id="filter0_d" x="0.499969" y="0.499939" width="66" height="23.0001" filterUnits="userSpaceOnUse" color-interpolation-filters="sRGB">
<feFlood flood-opacity="0" result="BackgroundImageFix"/>
<feColorMatrix in="SourceAlpha" type="matrix" values="0 0 0 0 0 0 0 0 0 0 0 0 0 0 0 0 0 0 127 0"/>
<feOffset dy="4"/>
<feGaussianBlur stdDeviation="2"/>
<feColorMatrix type="matrix" values="0 0 0 0 0 0 0 0 0 0 0 0 0 0 0 0 0 0 0.25 0"/>
<feBlend mode="normal" in2="BackgroundImageFix" result="effect1_dropShadow"/>
<feBlend mode="normal" in="SourceGraphic" in2="effect1_dropShadow" result="shape"/>
</filter>
</defs>
</svg>
