<svg width="99" height="77" viewBox="0 0 99 77" fill="none" xmlns="http://www.w3.org/2000/svg">
<g filter="url(#filter0_d)">
<path d="M59.5058 25.3802H8.44057C5.79937 25.3802 3.9758 21.9821 5.63483 20.4829C8.20909 18.1567 10.7091 16.7144 13.6348 15.9829C17.6348 14.983 21.4485 14.7402 23.6348 12.5539C28.1348 8.05392 26.7994 2.55398 35.7994 1.05397C40.7314 0.231974 37.7775 9.02576 47.6348 11.9829C52.6348 13.4829 55.1348 11.0539 57.7994 11.0539C64.1348 11.0539 61.6838 13.0956 66.7251 15.0539C71.7664 17.0123 72.194 17.5056 70.6348 21.4829C69.1348 25.3092 66.7251 24.8802 66.7251 24.8802C66.7251 24.8802 64.2781 25.3802 59.5058 25.3802Z" fill="#7290A2"/>
<path d="M59.5058 25.3802H8.44057C5.79937 25.3802 3.9758 21.9821 5.63483 20.4829C8.20909 18.1567 10.7091 16.7144 13.6348 15.9829C17.6348 14.983 21.4485 14.7402 23.6348 12.5539C28.1348 8.05392 26.7994 2.55398 35.7994 1.05397C40.7314 0.231974 37.7775 9.02576 47.6348 11.9829C52.6348 13.4829 55.1348 11.0539 57.7994 11.0539C64.1348 11.0539 61.6838 13.0956 66.7251 15.0539C71.7664 17.0123 72.194 17.5056 70.6348 21.4829C69.1348 25.3092 66.7251 24.8802 66.7251 24.8802C66.7251 24.8802 64.2781 25.3802 59.5058 25.3802Z" stroke="#EBEBEB"/>
</g>
<g filter="url(#filter1_d)">
<path d="M81.4155 50.9829H30.3503C26.236 50.9829 20.0138 50.0849 17.6844 47.7969C14.1486 44.3239 12.6348 39.4829 22.1531 34.9883C24.4607 33.8986 34.6152 30.5799 37.59 27.6532C45.2408 20.126 46.7135 32.1512 51.3118 29.9242C56.2975 27.5095 59.8879 12.9829 70.1792 12.9829C74.0632 12.9829 73.3446 20.092 76.4683 22.3186C81.4156 25.8448 85.6348 22.7811 85.6348 29.9242C85.6348 32.1951 91.532 36.0185 93.6205 40.9898C95.709 45.9611 90.7617 48.9917 90.7617 48.9917C90.7617 48.9917 86.1879 50.9829 81.4155 50.9829Z" fill="#7290A2"/>
<path d="M81.4155 50.9829H30.3503C26.236 50.9829 20.0138 50.0849 17.6844 47.7969C14.1486 44.3239 12.6348 39.4829 22.1531 34.9883C24.4607 33.8986 34.6152 30.5799 37.59 27.6532C45.2408 20.126 46.7135 32.1512 51.3118 29.9242C56.2975 27.5095 59.8879 12.9829 70.1792 12.9829C74.0632 12.9829 73.3446 20.092 76.4683 22.3186C81.4156 25.8448 85.6348 22.7811 85.6348 29.9242C85.6348 32.1951 91.532 36.0185 93.6205 40.9898C95.709 45.9611 90.7617 48.9917 90.7617 48.9917C90.7617 48.9917 86.1879 50.9829 81.4155 50.9829Z" stroke="#EBEBEB"/>
</g>
<path d="M64.56 59V57M64.56 55V57M64.56 57H63H64.5M64.56 57L63.25 58L64.5 57M64.56 57L65.75 58L64.5 57M66 57H64.5M64.5 57L65.75 55.75M64.5 57L63.25 55.75" stroke="#D3D3D3" stroke-width="0.7"/>
<path d="M11.12 37.7766V33.7766M11.12 30V33.7766M11.12 33.7766H8H11M11.12 33.7766L9.5 35.2766L11 33.7766M11.12 33.7766L13.04 35.5697L11 33.7766M14.5 33.7766H11M11 33.7766L12.5 32.2766M11 33.7766L9.5 32.2766" stroke="#D3D3D3"/>
<path d="M71.5 68L72.12 64.7766M73.5 61L72.12 64.7766M72.12 64.7766H69H72M72.12 64.7766L69 67L72 64.7766M72.12 64.7766L74.5 67.5L72 64.7766M75.5 64.7766H72M72 64.7766L74.5 63M72 64.7766L71.5 61.5" stroke="#D3D3D3"/>
<path d="M38.56 60V58M38.56 56V58M38.56 58H37H38.5M38.56 58L37.25 59L38.5 58M38.56 58L39.75 59L38.5 58M40 58H38.5M38.5 58L39.75 56.75M38.5 58L37.25 56.75" stroke="#D3D3D3" stroke-width="0.7"/>
<path d="M52.56 76V74M52.56 72V74M52.56 74H51H52.5M52.56 74L51.25 75L52.5 74M52.56 74L53.75 75L52.5 74M54 74H52.5M52.5 74L53.75 72.75M52.5 74L51.25 72.75" stroke="#D3D3D3" stroke-width="0.7"/>
<path d="M41.56 71V69M41.56 67V69M41.56 69H40H41.5M41.56 69L40.25 70L41.5 69M41.56 69L42.75 70L41.5 69M43 69H41.5M41.5 69L42.75 67.75M41.5 69L40.25 67.75" stroke="#D3D3D3" stroke-width="0.7"/>
<circle cx="36" cy="16" r="1" fill="#C4C4C4"/>
<circle cx="65" cy="38" r="1" fill="#C4C4C4"/>
<path d="M29.5572 56C27.42 60.7368 27.5129 62 29.6501 62C31.4224 62 31.5085 60.7368 29.5572 56Z" fill="#A6C1D4" stroke="#6A6A6A" stroke-width="0.5"/>
<path d="M53.5572 59C51.42 62.1579 51.5129 63 53.6501 63C55.4224 63 55.5085 62.1579 53.5572 59Z" fill="#A6C1D4" stroke="#6A6A6A" stroke-width="0.5"/>
<path d="M85.0381 53C83.6133 57.7368 83.6753 59 85.1001 59C86.2816 59 86.339 57.7368 85.0381 53Z" fill="#A6C1D4" stroke="#6A6A6A" stroke-width="0.5"/>
<path d="M21.0381 55C19.6133 58.1579 19.6753 59 21.1001 59C22.2816 59 22.339 58.1579 21.0381 55Z" fill="#A6C1D4" stroke="#6A6A6A" stroke-width="0.5"/>
<path d="M23.5572 28C21.42 31.1579 21.5129 32 23.6501 32C25.4224 32 25.5085 31.1579 23.5572 28Z" fill="#A6C1D4" stroke="#6A6A6A" stroke-width="0.5"/>
<path d="M63.5572 72C61.42 75.1579 61.5129 76 63.6501 76C65.4224 76 65.5085 75.1579 63.5572 72Z" fill="#A6C1D4" stroke="#6A6A6A" stroke-width="0.5"/>
<defs>
<filter id="filter0_d" x="0.500427" y="0.500023" width="75.4348" height="33.3801" filterUnits="userSpaceOnUse" color-interpolation-filters="sRGB">
<feFlood flood-opacity="0" result="BackgroundImageFix"/>
<feColorMatrix in="SourceAlpha" type="matrix" values="0 0 0 0 0 0 0 0 0 0 0 0 0 0 0 0 0 0 127 0"/>
<feOffset dy="4"/>
<feGaussianBlur stdDeviation="2"/>
<feColorMatrix type="matrix" values="0 0 0 0 0 0 0 0 0 0 0 0 0 0 0 0 0 0 0.25 0"/>
<feBlend mode="normal" in2="BackgroundImageFix" result="effect1_dropShadow"/>
<feBlend mode="normal" in="SourceGraphic" in2="effect1_dropShadow" result="shape"/>
</filter>
<filter id="filter1_d" x="10.4587" y="12.4829" width="88.1765" height="47" filterUnits="userSpaceOnUse" color-interpolation-filters="sRGB">
<feFlood flood-opacity="0" result="BackgroundImageFix"/>
<feColorMatrix in="SourceAlpha" type="matrix" values="0 0 0 0 0 0 0 0 0 0 0 0 0 0 0 0 0 0 127 0"/>
<feOffset dy="4"/>
<feGaussianBlur stdDeviation="2"/>
<feColorMatrix type="matrix" values="0 0 0 0 0 0 0 0 0 0 0 0 0 0 0 0 0 0 0.25 0"/>
<feBlend mode="normal" in2="BackgroundImageFix" result="effect1_dropShadow"/>
<feBlend mode="normal" in="SourceGraphic" in2="effect1_dropShadow" result="shape"/>
</filter>
</defs>
</svg>
