<svg width="130" height="99" viewBox="0 0 130 99" fill="none" xmlns="http://www.w3.org/2000/svg">
<g filter="url(#filter0_d)">
<path d="M59.3612 2.34244C60.1574 1.20442 61.8426 1.20442 62.6388 2.34244L70.9702 14.2512C71.4525 14.9406 72.3147 15.2545 73.1274 15.0364L87.1644 11.269C88.5058 10.909 89.7967 11.9923 89.6751 13.3758L88.4025 27.8538C88.3289 28.6919 88.7876 29.4866 89.5503 29.8418L102.725 35.9787C103.984 36.5652 104.277 38.2248 103.294 39.2065L93.0129 49.4792C92.4178 50.0739 92.2584 50.9776 92.6143 51.74L98.7619 64.9096C99.3494 66.1681 98.5068 67.6275 97.1232 67.748L82.6442 69.0088C81.8059 69.0818 81.103 69.6716 80.8856 70.4844L77.1297 84.5245C76.7708 85.8662 75.1872 86.4426 74.0498 85.6455L62.1478 77.3044C61.4588 76.8215 60.5412 76.8215 59.8522 77.3044L47.9502 85.6455C46.8128 86.4426 45.2292 85.8662 44.8703 84.5245L41.1144 70.4844C40.897 69.6716 40.1941 69.0818 39.3558 69.0088L24.8769 67.748C23.4932 67.6275 22.6506 66.1681 23.2381 64.9096L29.3857 51.74C29.7416 50.9776 29.5822 50.0739 28.9871 49.4792L18.7059 39.2065C17.7235 38.2248 18.0161 36.5652 19.2751 35.9787L32.4497 29.8418C33.2124 29.4866 33.6711 28.6919 33.5975 27.8538L32.3249 13.3758C32.2033 11.9923 33.4942 10.909 34.8356 11.269L48.8726 15.0364C49.6853 15.2545 50.5475 14.9406 51.0298 14.2512L59.3612 2.34244Z" fill="#FFE27D"/>
<circle cx="60.8856" cy="44.8856" r="33.3856" fill="#FFC600" stroke="white"/>
</g>
<g filter="url(#filter1_d)">
<path d="M60.8265 50.9919H16.1687C12.5707 50.9919 5.36856 51.2912 5.09209 48.2411C4.66882 43.5712 5.66849 37.2571 8.84322 33.9608C10.4959 32.2448 16.7571 33.1543 17.3091 29.287C18.3674 21.8741 22.3552 15.2188 26.3765 13.2959C30.7366 11.211 33.2314 20.7127 35.689 24.009C37.9015 26.9768 39.5993 32.5848 42.4617 33.9608C48.1762 36.7077 49.6578 33.6234 54.949 36.9198C59.9864 40.058 56.6757 42.6884 62.1786 45.4354C64.7659 46.7269 63.8382 48.2411 63.8382 48.2411C63.8382 48.2411 62.5196 49.71 60.8265 50.9919Z" fill="white"/>
<path d="M60.8265 50.9919H16.1687C12.5707 50.9919 5.36856 51.2912 5.09209 48.2411C4.66882 43.5712 5.66849 37.2571 8.84322 33.9608C10.4959 32.2448 16.7571 33.1543 17.3091 29.287C18.3674 21.8741 22.3552 15.2188 26.3765 13.2959C30.7366 11.211 33.2314 20.7127 35.689 24.009C37.9015 26.9768 39.5993 32.5848 42.4617 33.9608C48.1762 36.7077 49.6578 33.6234 54.949 36.9198C59.9864 40.058 56.6757 42.6884 62.1786 45.4354C64.7659 46.7269 63.8382 48.2411 63.8382 48.2411C63.8382 48.2411 62.5196 49.71 60.8265 50.9919Z" stroke="#EBEBEB"/>
</g>
<g filter="url(#filter2_d)">
<path d="M112.281 74H61.2155C57.1012 74 50.879 73.102 48.5496 70.814C45.0138 67.341 44.0496 56.6717 53.0182 58.0054C55.5424 58.3807 65.4804 53.597 68.4551 50.6703C76.106 43.1431 77.5787 55.1683 82.177 52.9412C87.1627 50.5265 90.7531 36 101.044 36C104.928 36 104.21 43.1091 107.334 45.3356C112.281 48.8618 115.91 43.5272 115.91 50.6703C115.91 58.3086 122.397 59.0355 124.486 64.0069C126.574 68.9782 121.627 72.0088 121.627 72.0088C121.627 72.0088 117.053 74 112.281 74Z" fill="white"/>
<path d="M112.281 74H61.2155C57.1012 74 50.879 73.102 48.5496 70.814C45.0138 67.341 44.0496 56.6717 53.0182 58.0054C55.5424 58.3807 65.4804 53.597 68.4551 50.6703C76.106 43.1431 77.5787 55.1683 82.177 52.9412C87.1627 50.5265 90.7531 36 101.044 36C104.928 36 104.21 43.1091 107.334 45.3356C112.281 48.8618 115.91 43.5272 115.91 50.6703C115.91 58.3086 122.397 59.0355 124.486 64.0069C126.574 68.9782 121.627 72.0088 121.627 72.0088C121.627 72.0088 117.053 74 112.281 74Z" stroke="#EBEBEB"/>
</g>
<g filter="url(#filter3_d)">
<path d="M104.769 29H49.5585C47.1632 26.5048 42.5262 27.9048 44.4603 25.673C46.6226 23.1778 47.7036 20.6825 56.3532 17.3555C60.6779 15.692 57.9749 21.5142 63.9214 15.692C73.7113 6.10665 73.1113 19.8508 82.8419 17.3555C88.1742 15.9881 84.5054 -0.706707 93.6536 9.03799C100.681 16.5238 100.547 10.3247 103.925 14.0285C109.274 19.8944 106.628 10.7015 111.493 15.692C117.169 21.5142 114.196 19.019 118.521 21.5142C123.979 24.6638 112.574 28.1682 112.574 28.1682C112.574 28.1682 109.929 29 104.769 29Z" fill="white"/>
<path d="M104.769 29H49.5585C47.1632 26.5048 42.5262 27.9048 44.4603 25.673C46.6226 23.1778 47.7036 20.6825 56.3532 17.3555C60.6779 15.692 57.9749 21.5142 63.9214 15.692C73.7113 6.10665 73.1113 19.8508 82.8419 17.3555C88.1742 15.9881 84.5054 -0.706707 93.6536 9.03799C100.681 16.5238 100.547 10.3247 103.925 14.0285C109.274 19.8944 106.628 10.7015 111.493 15.692C117.169 21.5142 114.196 19.019 118.521 21.5142C123.979 24.6638 112.574 28.1682 112.574 28.1682C112.574 28.1682 109.929 29 104.769 29Z" stroke="#EBEBEB"/>
</g>
<g filter="url(#filter4_d)">
<path d="M56.5767 90H15.1689C13.3724 88.4812 9.89466 89.3334 11.3452 87.9749C12.9669 86.456 13.7777 84.9372 20.2649 82.912C23.5084 81.8995 21.4812 85.4435 25.941 81.8995C33.2835 76.0649 32.8335 84.4309 40.1314 82.912C44.1307 82.0797 41.379 71.9177 48.2402 77.8492C53.5109 82.4058 53.4106 78.6324 55.9436 80.8869C59.9552 84.4574 57.9708 78.8618 61.6197 81.8995C65.8768 85.4435 63.647 83.9246 66.8905 85.4435C70.9845 87.3606 62.4307 89.4937 62.4307 89.4937C62.4307 89.4937 60.4464 90 56.5767 90Z" fill="white"/>
<path d="M56.5767 90H15.1689C13.3724 88.4812 9.89466 89.3334 11.3452 87.9749C12.9669 86.456 13.7777 84.9372 20.2649 82.912C23.5084 81.8995 21.4812 85.4435 25.941 81.8995C33.2835 76.0649 32.8335 84.4309 40.1314 82.912C44.1307 82.0797 41.379 71.9177 48.2402 77.8492C53.5109 82.4058 53.4106 78.6324 55.9436 80.8869C59.9552 84.4574 57.9708 78.8618 61.6197 81.8995C65.8768 85.4435 63.647 83.9246 66.8905 85.4435C70.9845 87.3606 62.4307 89.4937 62.4307 89.4937C62.4307 89.4937 60.4464 90 56.5767 90Z" stroke="#EBEBEB"/>
</g>
<circle cx="61" cy="45" r="1" fill="#C4C4C4"/>
<defs>
<filter id="filter0_d" x="14.1191" y="1.48892" width="93.7617" height="92.52" filterUnits="userSpaceOnUse" color-interpolation-filters="sRGB">
<feFlood flood-opacity="0" result="BackgroundImageFix"/>
<feColorMatrix in="SourceAlpha" type="matrix" values="0 0 0 0 0 0 0 0 0 0 0 0 0 0 0 0 0 0 127 0"/>
<feOffset dy="4"/>
<feGaussianBlur stdDeviation="2"/>
<feColorMatrix type="matrix" values="0 0 0 0 0 0 0 0 0 0 0 0 0 0 0 0 0 0 0.25 0"/>
<feBlend mode="normal" in2="BackgroundImageFix" result="effect1_dropShadow"/>
<feBlend mode="normal" in="SourceGraphic" in2="effect1_dropShadow" result="shape"/>
</filter>
<filter id="filter1_d" x="0.5" y="12.5" width="68" height="47.0001" filterUnits="userSpaceOnUse" color-interpolation-filters="sRGB">
<feFlood flood-opacity="0" result="BackgroundImageFix"/>
<feColorMatrix in="SourceAlpha" type="matrix" values="0 0 0 0 0 0 0 0 0 0 0 0 0 0 0 0 0 0 127 0"/>
<feOffset dy="4"/>
<feGaussianBlur stdDeviation="2"/>
<feColorMatrix type="matrix" values="0 0 0 0 0 0 0 0 0 0 0 0 0 0 0 0 0 0 0.25 0"/>
<feBlend mode="normal" in2="BackgroundImageFix" result="effect1_dropShadow"/>
<feBlend mode="normal" in="SourceGraphic" in2="effect1_dropShadow" result="shape"/>
</filter>
<filter id="filter2_d" x="41.5" y="35.5" width="88.0004" height="47" filterUnits="userSpaceOnUse" color-interpolation-filters="sRGB">
<feFlood flood-opacity="0" result="BackgroundImageFix"/>
<feColorMatrix in="SourceAlpha" type="matrix" values="0 0 0 0 0 0 0 0 0 0 0 0 0 0 0 0 0 0 127 0"/>
<feOffset dy="4"/>
<feGaussianBlur stdDeviation="2"/>
<feColorMatrix type="matrix" values="0 0 0 0 0 0 0 0 0 0 0 0 0 0 0 0 0 0 0.25 0"/>
<feBlend mode="normal" in2="BackgroundImageFix" result="effect1_dropShadow"/>
<feBlend mode="normal" in="SourceGraphic" in2="effect1_dropShadow" result="shape"/>
</filter>
<filter id="filter3_d" x="39.5002" y="5.49985" width="84.9997" height="32.0002" filterUnits="userSpaceOnUse" color-interpolation-filters="sRGB">
<feFlood flood-opacity="0" result="BackgroundImageFix"/>
<feColorMatrix in="SourceAlpha" type="matrix" values="0 0 0 0 0 0 0 0 0 0 0 0 0 0 0 0 0 0 127 0"/>
<feOffset dy="4"/>
<feGaussianBlur stdDeviation="2"/>
<feColorMatrix type="matrix" values="0 0 0 0 0 0 0 0 0 0 0 0 0 0 0 0 0 0 0.25 0"/>
<feBlend mode="normal" in2="BackgroundImageFix" result="effect1_dropShadow"/>
<feBlend mode="normal" in="SourceGraphic" in2="effect1_dropShadow" result="shape"/>
</filter>
<filter id="filter4_d" x="6.49994" y="75.4999" width="66" height="23.0001" filterUnits="userSpaceOnUse" color-interpolation-filters="sRGB">
<feFlood flood-opacity="0" result="BackgroundImageFix"/>
<feColorMatrix in="SourceAlpha" type="matrix" values="0 0 0 0 0 0 0 0 0 0 0 0 0 0 0 0 0 0 127 0"/>
<feOffset dy="4"/>
<feGaussianBlur stdDeviation="2"/>
<feColorMatrix type="matrix" values="0 0 0 0 0 0 0 0 0 0 0 0 0 0 0 0 0 0 0.25 0"/>
<feBlend mode="normal" in2="BackgroundImageFix" result="effect1_dropShadow"/>
<feBlend mode="normal" in="SourceGraphic" in2="effect1_dropShadow" result="shape"/>
</filter>
</defs>
</svg>
