<svg width="132" height="85" viewBox="0 0 132 85" fill="none" xmlns="http://www.w3.org/2000/svg">

    <g filter="url(#filter0_d)">
<path d="M72.8024 53.2572H11.2019C8.52928 51.0065 3.35564 52.2694 5.51353 50.2562C7.9261 48.0055 9.13221 45.7547 18.783 42.7537C23.6082 41.2532 20.5924 46.5049 27.2271 41.2532C38.1502 32.607 37.4808 45.0044 48.3376 42.7536C54.2871 41.5202 50.1936 26.4612 60.4007 35.2511C68.2417 42.0034 68.0924 36.4117 71.8606 39.7526C77.8285 45.0438 74.8764 36.7516 80.3048 41.2532C86.6379 46.5049 83.3206 44.2542 88.1459 46.5049C94.2364 49.3459 81.5112 52.507 81.5112 52.507C81.5112 52.507 78.5593 53.2572 72.8024 53.2572Z" fill="#E8E8E8"/>
<path d="M72.8024 53.2572H11.2019C8.52928 51.0065 3.35564 52.2694 5.51353 50.2562C7.9261 48.0055 9.13221 45.7547 18.783 42.7537C23.6082 41.2532 20.5924 46.5049 27.2271 41.2532C38.1502 32.607 37.4808 45.0044 48.3376 42.7536C54.2871 41.5202 50.1936 26.4612 60.4007 35.2511C68.2417 42.0034 68.0924 36.4117 71.8606 39.7526C77.8285 45.0438 74.8764 36.7516 80.3048 41.2532C86.6379 46.5049 83.3206 44.2542 88.1459 46.5049C94.2364 49.3459 81.5112 52.507 81.5112 52.507C81.5112 52.507 78.5593 53.2572 72.8024 53.2572Z" stroke="white"/>
</g>
<g filter="url(#filter1_d)">
<path d="M85.2267 37.5827H23.6261C20.44 37.5827 18.2402 32.4839 20.2415 30.2344C23.3469 26.7438 26.3626 24.5796 29.892 23.4821C34.7172 21.9816 39.3177 21.6174 41.9551 18.3368C47.3835 11.5845 45.7725 3.33177 56.6293 1.08099C62.5788 -0.152433 59.0156 13.0427 70.9066 17.48C76.9381 19.7308 79.9539 16.086 83.1682 16.086C90.8107 16.086 87.854 19.1495 93.9354 22.0881C100.017 25.0266 100.533 25.7669 98.6517 31.7349C96.8423 37.4762 93.9354 36.8325 93.9354 36.8325C93.9354 36.8325 90.9836 37.5827 85.2267 37.5827Z" fill="#E8E8E8"/>
<path d="M85.2267 37.5827H23.6261C20.44 37.5827 18.2402 32.4839 20.2415 30.2344C23.3469 26.7438 26.3626 24.5796 29.892 23.4821C34.7172 21.9816 39.3177 21.6174 41.9551 18.3368C47.3835 11.5845 45.7725 3.33177 56.6293 1.08099C62.5788 -0.152433 59.0156 13.0427 70.9066 17.48C76.9381 19.7308 79.9539 16.086 83.1682 16.086C90.8107 16.086 87.854 19.1495 93.9354 22.0881C100.017 25.0266 100.533 25.7669 98.6517 31.7349C96.8423 37.4762 93.9354 36.8325 93.9354 36.8325C93.9354 36.8325 90.9836 37.5827 85.2267 37.5827Z" stroke="white"/>
</g>
<g filter="url(#filter2_d)">
<path d="M111.657 76H50.056C45.0929 76 37.5869 74.6525 34.777 71.2193C30.5118 66.0081 28.6857 58.7441 40.1676 51.9999C42.9513 50.3648 55.2008 45.385 58.7893 40.9934C68.0186 29.6988 69.7951 47.7427 75.3421 44.401C81.3564 40.7778 85.6875 18.9805 98.1021 18.9805C102.787 18.9805 101.92 29.6478 105.689 32.9887C111.657 38.2799 116.746 33.6827 116.746 44.401C116.746 47.8086 123.86 53.5456 126.38 61.0052C128.899 68.4646 122.931 73.0122 122.931 73.0122C122.931 73.0122 117.413 76 111.657 76Z" fill="#E8E8E8"/>
<path d="M111.657 76H50.056C45.0929 76 37.5869 74.6525 34.777 71.2193C30.5118 66.0081 28.6857 58.7441 40.1676 51.9999C42.9513 50.3648 55.2008 45.385 58.7893 40.9934C68.0186 29.6988 69.7951 47.7427 75.3421 44.401C81.3564 40.7778 85.6875 18.9805 98.1021 18.9805C102.787 18.9805 101.92 29.6478 105.689 32.9887C111.657 38.2799 116.746 33.6827 116.746 44.401C116.746 47.8086 123.86 53.5456 126.38 61.0052C128.899 68.4646 122.931 73.0122 122.931 73.0122C122.931 73.0122 117.413 76 111.657 76Z" stroke="white"/>
</g>
<ellipse cx="94.2671" cy="56.5189" rx="1.20631" ry="1.50051" fill="#E8E8E8"/>
<ellipse cx="55.6651" cy="22.0072" rx="1.20631" ry="1.50051" fill="#E8E8E8"/>
<ellipse cx="42.3956" cy="47.5159" rx="1.20631" ry="1.50051" fill="#E8E8E8"/>
<defs>
<filter id="filter0_d" x="0.5" y="32.0107" width="93.7964" height="29.7465" filterUnits="userSpaceOnUse" color-interpolation-filters="sRGB">
<feFlood flood-opacity="0" result="BackgroundImageFix"/>
<feColorMatrix in="SourceAlpha" type="matrix" values="0 0 0 0 0 0 0 0 0 0 0 0 0 0 0 0 0 0 127 0"/>
<feOffset dy="4"/>
<feGaussianBlur stdDeviation="2"/>
<feColorMatrix type="matrix" values="0 0 0 0 0 0 0 0 0 0 0 0 0 0 0 0 0 0 0.25 0"/>
<feBlend mode="normal" in2="BackgroundImageFix" result="effect1_dropShadow"/>
<feBlend mode="normal" in="SourceGraphic" in2="effect1_dropShadow" result="shape"/>
</filter>
<filter id="filter1_d" x="14.976" y="0.500046" width="89.1414" height="45.5827" filterUnits="userSpaceOnUse" color-interpolation-filters="sRGB">
<feFlood flood-opacity="0" result="BackgroundImageFix"/>
<feColorMatrix in="SourceAlpha" type="matrix" values="0 0 0 0 0 0 0 0 0 0 0 0 0 0 0 0 0 0 127 0"/>
<feOffset dy="4"/>
<feGaussianBlur stdDeviation="2"/>
<feColorMatrix type="matrix" values="0 0 0 0 0 0 0 0 0 0 0 0 0 0 0 0 0 0 0.25 0"/>
<feBlend mode="normal" in2="BackgroundImageFix" result="effect1_dropShadow"/>
<feBlend mode="normal" in="SourceGraphic" in2="effect1_dropShadow" result="shape"/>
</filter>
<filter id="filter2_d" x="26.9893" y="18.4805" width="104.511" height="66.0195" filterUnits="userSpaceOnUse" color-interpolation-filters="sRGB">
<feFlood flood-opacity="0" result="BackgroundImageFix"/>
<feColorMatrix in="SourceAlpha" type="matrix" values="0 0 0 0 0 0 0 0 0 0 0 0 0 0 0 0 0 0 127 0"/>
<feOffset dy="4"/>
<feGaussianBlur stdDeviation="2"/>
<feColorMatrix type="matrix" values="0 0 0 0 0 0 0 0 0 0 0 0 0 0 0 0 0 0 0.25 0"/>
<feBlend mode="normal" in2="BackgroundImageFix" result="effect1_dropShadow"/>
<feBlend mode="normal" in="SourceGraphic" in2="effect1_dropShadow" result="shape"/>
</filter>
</defs>
</svg>
