<svg width="135" height="92" viewBox="0 0 135 92" fill="none" xmlns="http://www.w3.org/2000/svg">
<path d="M59.5044 84.0277C54.9539 76.3167 46.0045 80.3491 32.5044 80.3491C19.0044 80.3491 -0.335754 50.0825 0.00442671 44.1088C0.344607 38.1351 2.73331 38.3213 6.50443 36.1439C12.6701 32.584 18.4582 36.9588 26.0044 36.1439C31.1674 35.5864 39.5953 37.8776 39.0044 33.7544C38.7765 32.1636 37.4807 31.57 36.5044 30.1702C35.5281 28.7705 13.3139 27.3932 13.5044 19.0194C13.6426 12.9469 19.5044 10.258 26.0044 7.07202C32.5044 3.88606 32.4269 7.41727 36.5044 7.07202C43.8135 6.45315 47.2523 1.73774 54.5044 2.69132C62.3277 3.72001 62.8294 11.0614 70.5044 12.6475C83.1832 15.2675 88.7096 -3.83751 100.504 0.700096C111.236 4.82851 108.518 14.3804 110.004 23.7983C110.979 29.9707 115.644 24.3682 120.5 30.1702C123.5 33.7544 122.684 34.8975 125 37.5C129.004 42 125.915 41.5504 129.004 44.1088C133.802 48.0811 134.131 52.1383 134.004 57.6492C133.739 69.2367 123.297 75.6345 110.004 80.3491C94.5656 85.8251 104.504 91.5 81.504 91.5C76.7772 91.5 62.504 89.1105 59.5044 84.0277Z" fill="#C4C4C4" fill-opacity="0.46"/>
<path d="M60.9541 75.9568C57.5927 69.7206 51.9721 72 42 72C32.0279 72 17.2487 59.8312 17.5 55C17.7513 50.1688 17.7143 45.2609 20.4999 43.5C25.0543 40.6209 30.6345 41.659 36.2086 41C40.0224 40.5491 46.2478 38.6332 45.8113 35.2987C45.6429 34.0121 44.6858 33.532 43.9647 32.4C43.2435 31.268 26.3592 25.0009 26.5 18.2285C26.602 13.3175 31.4073 16.2961 36.2086 13.7194C41.01 11.1428 42.7994 13.9987 45.8113 13.7194C51.2103 13.2189 51.9038 9.40538 57.2607 10.1766C63.0396 11.0085 63.4101 16.9459 69.0794 18.2285C78.4449 20.3475 82.5271 4.89644 91.2395 8.5662C99.1663 11.905 101 19.5 98.2569 27.2467C96.5734 32.001 87.7388 38.9354 93 41C95.3675 41.9291 102.372 39.6334 104.905 40.1299C108.117 40.7594 110.009 41.6036 112.292 43.6727C115.835 46.8853 116.093 55.5431 116 60C115.804 69.3713 112.319 72.1439 102.5 75.9568C91.0958 80.3855 94.4894 84.5 77.5 84.5C74.0085 84.5 63.1698 80.0675 60.9541 75.9568Z" fill="#C4C4C4" fill-opacity="0.46"/>
<path d="M64.2004 70.5538C60.8391 64.3176 56.6725 60.0538 46.7004 60.0538C36.7283 60.0538 23.9492 61.885 24.2004 57.0538C24.4517 52.2226 22.9148 49.8147 25.7004 48.0538C30.2548 45.1747 31.1263 48.7128 36.7004 48.0538C40.5142 47.6029 53.6369 40.3883 53.2004 37.0538C53.032 35.7672 49.7357 35.0538 46.7004 32.0538C43.6651 29.0538 39.0597 31.8261 39.2004 25.0538C39.3024 20.1427 38.8637 22.6304 43.6651 20.0538C48.4664 17.4771 49.1885 23.833 52.2004 23.5538C57.5994 23.0533 52.8435 15.2826 58.2004 16.0538C63.9792 16.8857 63.1105 16.9996 68.7798 18.2823C78.1453 20.4013 68.988 29.884 77.7004 33.5538C85.6272 36.8926 96.4436 21.807 93.7004 29.5538C92.017 34.308 80.4392 42.4892 85.7004 44.5538C88.068 45.4829 102.072 39.6872 104.605 40.1836C107.817 40.8132 102.323 45.9847 104.605 48.0538C108.149 51.2663 109.294 50.5969 109.2 55.0538C109.004 64.4251 107.776 59.7409 97.9573 63.5538C86.5531 67.9824 97.1898 70.5538 80.2004 70.5538C76.7089 70.5538 66.4161 74.6645 64.2004 70.5538Z" fill="#C4C4C4" fill-opacity="0.46"/>
</svg>
