<svg width="99" height="90" viewBox="0 0 99 90" fill="none" xmlns="http://www.w3.org/2000/svg">
<path d="M72.3484 2.41834C73.1425 1.2556 74.8575 1.25559 75.6516 2.41834L78.2225 6.18282C78.7042 6.88817 79.5807 7.20976 80.4043 6.98333L84.7302 5.794C86.0727 5.42491 87.3721 6.50624 87.2531 7.89342L86.849 12.6033C86.7777 13.4333 87.2285 14.2205 87.9803 14.5793L92.1586 16.573C93.3958 17.1634 93.6859 18.7952 92.7279 19.7757L89.4342 23.147C88.8571 23.7377 88.7024 24.6224 89.0449 25.374L91.0152 29.6979C91.5872 30.953 90.7468 32.3967 89.373 32.5193L84.8508 32.9227C84.0099 32.9977 83.3067 33.5926 83.0934 34.4094L81.9182 38.9094C81.5636 40.2674 79.957 40.8473 78.8168 40.0287L75.1664 37.4081C74.4693 36.9076 73.5307 36.9076 72.8336 37.4081L69.1832 40.0287C68.0431 40.8473 66.4364 40.2674 66.0818 38.9094L64.9066 34.4094C64.6933 33.5926 63.9901 32.9977 63.1492 32.9227L58.627 32.5193C57.2532 32.3967 56.4128 30.953 56.9848 29.6979L58.9551 25.374C59.2976 24.6224 59.1429 23.7377 58.5658 23.147L55.2721 19.7757C54.3141 18.7952 54.6042 17.1634 55.8414 16.573L60.0197 14.5793C60.7715 14.2205 61.2223 13.4333 61.151 12.6033L60.7469 7.89343C60.6279 6.50625 61.9273 5.42491 63.2698 5.794L67.5957 6.98333C68.4193 7.20976 69.2958 6.88817 69.7775 6.18283L72.3484 2.41834Z" fill="#FFE27D"/>
<path d="M89.2598 21.4575C89.2598 30.1392 82.3925 37.1564 73.9466 37.1564C65.5006 37.1564 58.6333 30.1392 58.6333 21.4575C58.6333 12.7758 65.5006 5.75854 73.9466 5.75854C82.3925 5.75854 89.2598 12.7758 89.2598 21.4575Z" fill="#FFC600" stroke="white"/>
<ellipse cx="74" cy="21.5122" rx="0.466667" ry="0.478049" fill="#C4C4C4"/>
<g filter="url(#filter0_d)">
<path d="M59.5058 31.3802H8.44057C5.79937 31.3802 3.9758 27.9821 5.63483 26.4829C8.20909 24.1567 10.7091 22.7144 13.6348 21.9829C17.6348 20.983 21.4485 20.7402 23.6348 18.5539C28.1348 14.0539 26.7994 8.55398 35.7994 7.05397C40.7314 6.23197 37.7775 15.0258 47.6348 17.9829C52.6348 19.4829 55.1348 17.0539 57.7994 17.0539C64.1348 17.0539 61.6838 19.0956 66.7251 21.0539C71.7664 23.0123 72.194 23.5056 70.6348 27.4829C69.1348 31.3092 66.7251 30.8802 66.7251 30.8802C66.7251 30.8802 64.2781 31.3802 59.5058 31.3802Z" fill="#ACB4B9"/>
<path d="M59.5058 31.3802H8.44057C5.79937 31.3802 3.9758 27.9821 5.63483 26.4829C8.20909 24.1567 10.7091 22.7144 13.6348 21.9829C17.6348 20.983 21.4485 20.7402 23.6348 18.5539C28.1348 14.0539 26.7994 8.55398 35.7994 7.05397C40.7314 6.23197 37.7775 15.0258 47.6348 17.9829C52.6348 19.4829 55.1348 17.0539 57.7994 17.0539C64.1348 17.0539 61.6838 19.0956 66.7251 21.0539C71.7664 23.0123 72.194 23.5056 70.6348 27.4829C69.1348 31.3092 66.7251 30.8802 66.7251 30.8802C66.7251 30.8802 64.2781 31.3802 59.5058 31.3802Z" stroke="#EBEBEB"/>
</g>
<g filter="url(#filter1_d)">
<path d="M81.4156 56.9829H30.3504C26.2361 56.9829 20.0138 56.0849 17.6845 53.7969C14.1487 50.3239 12.6349 45.4829 22.1531 40.9883C24.4607 39.8986 34.6153 36.5799 37.59 33.6532C45.2409 26.126 46.7135 38.1512 51.3118 35.9242C56.2976 33.5095 59.8879 18.9829 70.1793 18.9829C74.0633 18.9829 73.3446 26.092 76.4684 28.3186C81.4156 31.8448 85.6349 28.7811 85.6349 35.9242C85.6349 38.1951 91.532 42.0185 93.6206 46.9898C95.7091 51.9611 90.7618 54.9917 90.7618 54.9917C90.7618 54.9917 86.1879 56.9829 81.4156 56.9829Z" fill="#ACB4B9"/>
<path d="M81.4156 56.9829H30.3504C26.2361 56.9829 20.0138 56.0849 17.6845 53.7969C14.1487 50.3239 12.6349 45.4829 22.1531 40.9883C24.4607 39.8986 34.6153 36.5799 37.59 33.6532C45.2409 26.126 46.7135 38.1512 51.3118 35.9242C56.2976 33.5095 59.8879 18.9829 70.1793 18.9829C74.0633 18.9829 73.3446 26.092 76.4684 28.3186C81.4156 31.8448 85.6349 28.7811 85.6349 35.9242C85.6349 38.1951 91.532 42.0185 93.6206 46.9898C95.7091 51.9611 90.7618 54.9917 90.7618 54.9917C90.7618 54.9917 86.1879 56.9829 81.4156 56.9829Z" stroke="#EBEBEB"/>
</g>
<path d="M46.6919 63.9829C44.5548 68.7198 44.6477 69.9829 46.7848 69.9829C48.5572 69.9829 48.6433 68.7198 46.6919 63.9829Z" fill="#A6C1D4" stroke="#6A6A6A" stroke-width="0.5"/>
<path d="M64.5882 70C62.4706 73.5714 62.4706 75 64.5882 75C66.4706 75 66.4706 73.5714 64.5882 70Z" fill="#A6C1D4" stroke="#6A6A6A" stroke-width="0.5"/>
<path d="M20.1936 35.9829C18.7818 38.8401 18.7818 39.9829 20.1936 39.9829C21.4485 39.9829 21.4485 38.8401 20.1936 35.9829Z" fill="#A6C1D4" stroke="#6A6A6A" stroke-width="0.5"/>
<path d="M51.6919 82.9829C49.5548 87.7198 49.6477 88.9829 51.7848 88.9829C53.5572 88.9829 53.6433 87.7198 51.6919 82.9829Z" fill="#A6C1D4" stroke="#6A6A6A" stroke-width="0.5"/>
<path d="M31.5882 69C29.4706 72.5714 29.4706 74 31.5882 74C33.4706 74 33.4706 72.5714 31.5882 69Z" fill="#A6C1D4" stroke="#6A6A6A" stroke-width="0.5"/>
<defs>
<filter id="filter0_d" x="0.500366" y="6.50002" width="75.4348" height="33.3801" filterUnits="userSpaceOnUse" color-interpolation-filters="sRGB">
<feFlood flood-opacity="0" result="BackgroundImageFix"/>
<feColorMatrix in="SourceAlpha" type="matrix" values="0 0 0 0 0 0 0 0 0 0 0 0 0 0 0 0 0 0 127 0"/>
<feOffset dy="4"/>
<feGaussianBlur stdDeviation="2"/>
<feColorMatrix type="matrix" values="0 0 0 0 0 0 0 0 0 0 0 0 0 0 0 0 0 0 0.25 0"/>
<feBlend mode="normal" in2="BackgroundImageFix" result="effect1_dropShadow"/>
<feBlend mode="normal" in="SourceGraphic" in2="effect1_dropShadow" result="shape"/>
</filter>
<filter id="filter1_d" x="10.4587" y="18.4829" width="88.1765" height="47" filterUnits="userSpaceOnUse" color-interpolation-filters="sRGB">
<feFlood flood-opacity="0" result="BackgroundImageFix"/>
<feColorMatrix in="SourceAlpha" type="matrix" values="0 0 0 0 0 0 0 0 0 0 0 0 0 0 0 0 0 0 127 0"/>
<feOffset dy="4"/>
<feGaussianBlur stdDeviation="2"/>
<feColorMatrix type="matrix" values="0 0 0 0 0 0 0 0 0 0 0 0 0 0 0 0 0 0 0.25 0"/>
<feBlend mode="normal" in2="BackgroundImageFix" result="effect1_dropShadow"/>
<feBlend mode="normal" in="SourceGraphic" in2="effect1_dropShadow" result="shape"/>
</filter>
</defs>
</svg>
