<svg width="99" height="94" viewBox="0 0 99 94" fill="none" xmlns="http://www.w3.org/2000/svg">
<path d="M72.3484 2.41834C73.1425 1.2556 74.8575 1.25559 75.6516 2.41834L78.2225 6.18282C78.7042 6.88817 79.5807 7.20976 80.4043 6.98333L84.7302 5.794C86.0727 5.42491 87.3721 6.50624 87.2531 7.89342L86.849 12.6033C86.7777 13.4333 87.2285 14.2205 87.9803 14.5793L92.1586 16.573C93.3958 17.1634 93.6859 18.7952 92.7279 19.7757L89.4342 23.147C88.8571 23.7377 88.7024 24.6224 89.0449 25.374L91.0152 29.6979C91.5872 30.953 90.7468 32.3967 89.373 32.5193L84.8508 32.9227C84.0099 32.9977 83.3067 33.5926 83.0934 34.4094L81.9182 38.9094C81.5636 40.2674 79.957 40.8473 78.8168 40.0287L75.1664 37.4081C74.4693 36.9076 73.5307 36.9076 72.8336 37.4081L69.1832 40.0287C68.0431 40.8473 66.4364 40.2674 66.0818 38.9094L64.9066 34.4094C64.6933 33.5926 63.9901 32.9977 63.1492 32.9227L58.627 32.5193C57.2532 32.3967 56.4128 30.953 56.9848 29.6979L58.9551 25.374C59.2976 24.6224 59.1429 23.7377 58.5658 23.147L55.2721 19.7757C54.3141 18.7952 54.6042 17.1634 55.8414 16.573L60.0197 14.5793C60.7715 14.2205 61.2223 13.4333 61.151 12.6033L60.7469 7.89343C60.6279 6.50625 61.9273 5.42491 63.2698 5.794L67.5957 6.98333C68.4193 7.20976 69.2958 6.88817 69.7775 6.18283L72.3484 2.41834Z" fill="#FFE27D"/>
<path d="M89.2598 21.4575C89.2598 30.1392 82.3925 37.1564 73.9466 37.1564C65.5006 37.1564 58.6333 30.1392 58.6333 21.4575C58.6333 12.7758 65.5006 5.75854 73.9466 5.75854C82.3925 5.75854 89.2598 12.7758 89.2598 21.4575Z" fill="#FFC600" stroke="white"/>
<ellipse cx="74" cy="21.5122" rx="0.466667" ry="0.478049" fill="#C4C4C4"/>
<g filter="url(#filter0_d)">
<path d="M59.5058 37.3802H8.44057C5.79937 37.3802 3.9758 33.9821 5.63483 32.4829C8.20909 30.1567 10.7091 28.7144 13.6348 27.9829C17.6348 26.983 21.4485 26.7402 23.6348 24.5539C28.1348 20.0539 26.7994 14.554 35.7994 13.054C40.7314 12.232 37.7775 21.0258 47.6348 23.9829C52.6348 25.4829 55.1348 23.0539 57.7994 23.0539C64.1348 23.0539 61.6838 25.0956 66.7251 27.0539C71.7664 29.0123 72.194 29.5056 70.6348 33.4829C69.1348 37.3092 66.7251 36.8802 66.7251 36.8802C66.7251 36.8802 64.2781 37.3802 59.5058 37.3802Z" fill="#7C8F9D"/>
<path d="M59.5058 37.3802H8.44057C5.79937 37.3802 3.9758 33.9821 5.63483 32.4829C8.20909 30.1567 10.7091 28.7144 13.6348 27.9829C17.6348 26.983 21.4485 26.7402 23.6348 24.5539C28.1348 20.0539 26.7994 14.554 35.7994 13.054C40.7314 12.232 37.7775 21.0258 47.6348 23.9829C52.6348 25.4829 55.1348 23.0539 57.7994 23.0539C64.1348 23.0539 61.6838 25.0956 66.7251 27.0539C71.7664 29.0123 72.194 29.5056 70.6348 33.4829C69.1348 37.3092 66.7251 36.8802 66.7251 36.8802C66.7251 36.8802 64.2781 37.3802 59.5058 37.3802Z" stroke="#EBEBEB"/>
</g>
<g filter="url(#filter1_d)">
<path d="M81.4156 62.9829H30.3504C26.2361 62.9829 20.0138 62.0849 17.6845 59.7969C14.1487 56.3239 12.6349 51.4829 22.1531 46.9883C24.4607 45.8986 34.6153 42.5799 37.59 39.6532C45.2409 32.126 46.7135 44.1512 51.3118 41.9242C56.2976 39.5095 59.8879 24.9829 70.1793 24.9829C74.0633 24.9829 73.3446 32.092 76.4684 34.3186C81.4156 37.8448 85.6349 34.7811 85.6349 41.9242C85.6349 44.1951 91.532 48.0185 93.6206 52.9898C95.7091 57.9611 90.7618 60.9918 90.7618 60.9918C90.7618 60.9918 86.1879 62.9829 81.4156 62.9829Z" fill="#7C8F9D"/>
<path d="M81.4156 62.9829H30.3504C26.2361 62.9829 20.0138 62.0849 17.6845 59.7969C14.1487 56.3239 12.6349 51.4829 22.1531 46.9883C24.4607 45.8986 34.6153 42.5799 37.59 39.6532C45.2409 32.126 46.7135 44.1512 51.3118 41.9242C56.2976 39.5095 59.8879 24.9829 70.1793 24.9829C74.0633 24.9829 73.3446 32.092 76.4684 34.3186C81.4156 37.8448 85.6349 34.7811 85.6349 41.9242C85.6349 44.1951 91.532 48.0185 93.6206 52.9898C95.7091 57.9611 90.7618 60.9918 90.7618 60.9918C90.7618 60.9918 86.1879 62.9829 81.4156 62.9829Z" stroke="#EBEBEB"/>
</g>
<path d="M34.6919 67.9829C32.5548 72.7198 32.6477 73.9829 34.7849 73.9829C36.5572 73.9829 36.6433 72.7198 34.6919 67.9829Z" fill="#A6C1D4" stroke="#6A6A6A" stroke-width="0.5"/>
<path d="M48.6919 67.9829C46.5548 72.7198 46.6477 73.9829 48.7848 73.9829C50.5572 73.9829 50.6433 72.7198 48.6919 67.9829Z" fill="#A6C1D4" stroke="#6A6A6A" stroke-width="0.5"/>
<path d="M69.723 70.9829C67.6053 74.5544 67.6054 75.9829 69.723 75.9829C71.6054 75.9829 71.6053 74.5544 69.723 70.9829Z" fill="#A6C1D4" stroke="#6A6A6A" stroke-width="0.5"/>
<path d="M22.1936 39.9829C20.7818 42.8401 20.7818 43.9829 22.1936 43.9829C23.4485 43.9829 23.4485 42.8401 22.1936 39.9829Z" fill="#A6C1D4" stroke="#6A6A6A" stroke-width="0.5"/>
<path d="M53.6919 86.9829C51.5548 91.7198 51.6477 92.9829 53.7848 92.9829C55.5572 92.9829 55.6433 91.7198 53.6919 86.9829Z" fill="#A6C1D4" stroke="#6A6A6A" stroke-width="0.5"/>
<path d="M59.6919 73.9829C57.5548 80.2987 57.6477 81.9829 59.7848 81.9829C61.5572 81.9829 61.6433 80.2987 59.6919 73.9829Z" fill="#A6C1D4" stroke="#6A6A6A" stroke-width="0.5"/>
<path d="M79.6919 66.9829C77.5548 73.2987 77.6477 74.9829 79.7848 74.9829C81.5572 74.9829 81.6433 73.2987 79.6919 66.9829Z" fill="#A6C1D4" stroke="#6A6A6A" stroke-width="0.5"/>
<path d="M13.1729 42.9829C11.7481 46.1408 11.81 46.9829 13.2348 46.9829C14.4164 46.9829 14.4738 46.1408 13.1729 42.9829Z" fill="#A6C1D4" stroke="#6A6A6A" stroke-width="0.5"/>
<path d="M41.723 81.9829C39.6053 85.5544 39.6054 86.9829 41.723 86.9829C43.6054 86.9829 43.6053 85.5544 41.723 81.9829Z" fill="#A6C1D4" stroke="#6A6A6A" stroke-width="0.5"/>
<circle cx="69" cy="51" r="1" fill="#C4C4C4"/>
<circle cx="34" cy="28" r="1" fill="#C4C4C4"/>
<defs>
<filter id="filter0_d" x="0.500366" y="12.5" width="75.4348" height="33.3801" filterUnits="userSpaceOnUse" color-interpolation-filters="sRGB">
<feFlood flood-opacity="0" result="BackgroundImageFix"/>
<feColorMatrix in="SourceAlpha" type="matrix" values="0 0 0 0 0 0 0 0 0 0 0 0 0 0 0 0 0 0 127 0"/>
<feOffset dy="4"/>
<feGaussianBlur stdDeviation="2"/>
<feColorMatrix type="matrix" values="0 0 0 0 0 0 0 0 0 0 0 0 0 0 0 0 0 0 0.25 0"/>
<feBlend mode="normal" in2="BackgroundImageFix" result="effect1_dropShadow"/>
<feBlend mode="normal" in="SourceGraphic" in2="effect1_dropShadow" result="shape"/>
</filter>
<filter id="filter1_d" x="10.4587" y="24.4829" width="88.1765" height="47" filterUnits="userSpaceOnUse" color-interpolation-filters="sRGB">
<feFlood flood-opacity="0" result="BackgroundImageFix"/>
<feColorMatrix in="SourceAlpha" type="matrix" values="0 0 0 0 0 0 0 0 0 0 0 0 0 0 0 0 0 0 127 0"/>
<feOffset dy="4"/>
<feGaussianBlur stdDeviation="2"/>
<feColorMatrix type="matrix" values="0 0 0 0 0 0 0 0 0 0 0 0 0 0 0 0 0 0 0.25 0"/>
<feBlend mode="normal" in2="BackgroundImageFix" result="effect1_dropShadow"/>
<feBlend mode="normal" in="SourceGraphic" in2="effect1_dropShadow" result="shape"/>
</filter>
</defs>
</svg>
