<svg width="111" height="60" viewBox="0 0 111 60" fill="none" xmlns="http://www.w3.org/2000/svg">
<g filter="url(#filter0_d)">
<path d="M61.2064 35.8263H10.1412C7.92568 34.3263 3.63687 35.1679 5.4257 33.8263C7.42566 32.3263 8.4255 30.8263 16.4257 28.8263C20.4257 27.8263 17.9257 31.3263 23.4257 27.8263C32.4806 22.0641 31.9257 30.3263 40.9257 28.8263C45.8577 28.0043 42.4643 17.9683 50.9257 23.8263C57.4257 28.3263 57.3019 24.5998 60.4257 26.8263C65.3729 30.3525 62.9257 24.8263 67.4257 27.8263C72.6757 31.3263 69.9257 29.8263 73.9257 31.3263C78.9746 33.2196 68.4257 35.3263 68.4257 35.3263C68.4257 35.3263 65.9787 35.8263 61.2064 35.8263Z" fill="white" fill-opacity="0.9"/>
<path d="M61.2064 35.8263H10.1412C7.92568 34.3263 3.63687 35.1679 5.4257 33.8263C7.42566 32.3263 8.4255 30.8263 16.4257 28.8263C20.4257 27.8263 17.9257 31.3263 23.4257 27.8263C32.4806 22.0641 31.9257 30.3263 40.9257 28.8263C45.8577 28.0043 42.4643 17.9683 50.9257 23.8263C57.4257 28.3263 57.3019 24.5998 60.4257 26.8263C65.3729 30.3525 62.9257 24.8263 67.4257 27.8263C72.6757 31.3263 69.9257 29.8263 73.9257 31.3263C78.9746 33.2196 68.4257 35.3263 68.4257 35.3263C68.4257 35.3263 65.9787 35.8263 61.2064 35.8263Z" stroke="#EBEBEB"/>
</g>
<g filter="url(#filter1_d)">
<path d="M71.5058 25.3802H20.4406C17.7994 25.3802 15.9758 21.9821 17.6348 20.4829C20.2091 18.1567 22.7091 16.7144 25.6348 15.9829C29.6348 14.983 33.4485 14.7402 35.6348 12.5539C40.1348 8.05392 38.7994 2.55398 47.7994 1.05397C52.7314 0.231974 49.7775 9.02576 59.6348 11.9829C64.6348 13.4829 67.1348 11.0539 69.7994 11.0539C76.1348 11.0539 73.6838 13.0956 78.7251 15.0539C83.7664 17.0123 84.194 17.5056 82.6348 21.4829C81.1348 25.3092 78.7251 24.8802 78.7251 24.8802C78.7251 24.8802 76.2781 25.3802 71.5058 25.3802Z" fill="white"/>
<path d="M71.5058 25.3802H20.4406C17.7994 25.3802 15.9758 21.9821 17.6348 20.4829C20.2091 18.1567 22.7091 16.7144 25.6348 15.9829C29.6348 14.983 33.4485 14.7402 35.6348 12.5539C40.1348 8.05392 38.7994 2.55398 47.7994 1.05397C52.7314 0.231974 49.7775 9.02576 59.6348 11.9829C64.6348 13.4829 67.1348 11.0539 69.7994 11.0539C76.1348 11.0539 73.6838 13.0956 78.7251 15.0539C83.7664 17.0123 84.194 17.5056 82.6348 21.4829C81.1348 25.3092 78.7251 24.8802 78.7251 24.8802C78.7251 24.8802 76.2781 25.3802 71.5058 25.3802Z" stroke="#EBEBEB"/>
</g>
<g filter="url(#filter2_d)">
<path d="M93.4155 50.9829H42.3503C38.236 50.9829 32.0138 50.0849 29.6844 47.7969C26.1486 44.3239 24.6348 39.4829 34.1531 34.9883C36.4607 33.8986 46.6152 30.5799 49.59 27.6532C57.2408 20.126 58.7135 32.1512 63.3118 29.9242C68.2975 27.5095 71.8879 12.9829 82.1792 12.9829C86.0632 12.9829 85.3446 20.092 88.4683 22.3186C93.4156 25.8448 97.6348 22.7811 97.6348 29.9242C97.6348 32.1951 103.532 36.0185 105.62 40.9898C107.709 45.9611 102.762 48.9918 102.762 48.9918C102.762 48.9918 98.1879 50.9829 93.4155 50.9829Z" fill="white"/>
<path d="M93.4155 50.9829H42.3503C38.236 50.9829 32.0138 50.0849 29.6844 47.7969C26.1486 44.3239 24.6348 39.4829 34.1531 34.9883C36.4607 33.8986 46.6152 30.5799 49.59 27.6532C57.2408 20.126 58.7135 32.1512 63.3118 29.9242C68.2975 27.5095 71.8879 12.9829 82.1792 12.9829C86.0632 12.9829 85.3446 20.092 88.4683 22.3186C93.4156 25.8448 97.6348 22.7811 97.6348 29.9242C97.6348 32.1951 103.532 36.0185 105.62 40.9898C107.709 45.9611 102.762 48.9918 102.762 48.9918C102.762 48.9918 98.1879 50.9829 93.4155 50.9829Z" stroke="#EBEBEB"/>
</g>
<circle cx="79" cy="38" r="1" fill="#C4C4C4"/>
<circle cx="47" cy="15" r="1" fill="#C4C4C4"/>
<circle cx="36" cy="32" r="1" fill="#C4C4C4"/>
<defs>
<filter id="filter0_d" x="0.499908" y="21.5" width="79.2941" height="22.8263" filterUnits="userSpaceOnUse" color-interpolation-filters="sRGB">
<feFlood flood-opacity="0" result="BackgroundImageFix"/>
<feColorMatrix in="SourceAlpha" type="matrix" values="0 0 0 0 0 0 0 0 0 0 0 0 0 0 0 0 0 0 127 0"/>
<feOffset dy="4"/>
<feGaussianBlur stdDeviation="2"/>
<feColorMatrix type="matrix" values="0 0 0 0 0 0 0 0 0 0 0 0 0 0 0 0 0 0 0.25 0"/>
<feBlend mode="normal" in2="BackgroundImageFix" result="effect1_dropShadow"/>
<feBlend mode="normal" in="SourceGraphic" in2="effect1_dropShadow" result="shape"/>
</filter>
<filter id="filter1_d" x="12.5004" y="0.500015" width="75.4348" height="33.3801" filterUnits="userSpaceOnUse" color-interpolation-filters="sRGB">
<feFlood flood-opacity="0" result="BackgroundImageFix"/>
<feColorMatrix in="SourceAlpha" type="matrix" values="0 0 0 0 0 0 0 0 0 0 0 0 0 0 0 0 0 0 127 0"/>
<feOffset dy="4"/>
<feGaussianBlur stdDeviation="2"/>
<feColorMatrix type="matrix" values="0 0 0 0 0 0 0 0 0 0 0 0 0 0 0 0 0 0 0.25 0"/>
<feBlend mode="normal" in2="BackgroundImageFix" result="effect1_dropShadow"/>
<feBlend mode="normal" in="SourceGraphic" in2="effect1_dropShadow" result="shape"/>
</filter>
<filter id="filter2_d" x="22.4587" y="12.4829" width="88.1765" height="47" filterUnits="userSpaceOnUse" color-interpolation-filters="sRGB">
<feFlood flood-opacity="0" result="BackgroundImageFix"/>
<feColorMatrix in="SourceAlpha" type="matrix" values="0 0 0 0 0 0 0 0 0 0 0 0 0 0 0 0 0 0 127 0"/>
<feOffset dy="4"/>
<feGaussianBlur stdDeviation="2"/>
<feColorMatrix type="matrix" values="0 0 0 0 0 0 0 0 0 0 0 0 0 0 0 0 0 0 0.25 0"/>
<feBlend mode="normal" in2="BackgroundImageFix" result="effect1_dropShadow"/>
<feBlend mode="normal" in="SourceGraphic" in2="effect1_dropShadow" result="shape"/>
</filter>
</defs>
</svg>
