<svg width="99" height="81" viewBox="0 0 99 81" fill="none" xmlns="http://www.w3.org/2000/svg">
<g filter="url(#filter0_d)">
<path d="M59.5058 25.3802H8.44057C5.79937 25.3802 3.9758 21.9821 5.63483 20.4829C8.20909 18.1567 10.7091 16.7144 13.6348 15.9829C17.6348 14.983 21.4485 14.7402 23.6348 12.5539C28.1348 8.05392 26.7994 2.55398 35.7994 1.05397C40.7314 0.231974 37.7775 9.02576 47.6348 11.9829C52.6348 13.4829 55.1348 11.0539 57.7994 11.0539C64.1348 11.0539 61.6838 13.0956 66.7251 15.0539C71.7664 17.0123 72.194 17.5056 70.6348 21.4829C69.1348 25.3092 66.7251 24.8802 66.7251 24.8802C66.7251 24.8802 64.2781 25.3802 59.5058 25.3802Z" fill="#5B7381"/>
<path d="M59.5058 25.3802H8.44057C5.79937 25.3802 3.9758 21.9821 5.63483 20.4829C8.20909 18.1567 10.7091 16.7144 13.6348 15.9829C17.6348 14.983 21.4485 14.7402 23.6348 12.5539C28.1348 8.05392 26.7994 2.55398 35.7994 1.05397C40.7314 0.231974 37.7775 9.02576 47.6348 11.9829C52.6348 13.4829 55.1348 11.0539 57.7994 11.0539C64.1348 11.0539 61.6838 13.0956 66.7251 15.0539C71.7664 17.0123 72.194 17.5056 70.6348 21.4829C69.1348 25.3092 66.7251 24.8802 66.7251 24.8802C66.7251 24.8802 64.2781 25.3802 59.5058 25.3802Z" stroke="#EBEBEB"/>
</g>
<g filter="url(#filter1_d)">
<path d="M81.4155 50.9829H30.3503C26.236 50.9829 20.0138 50.0849 17.6844 47.7969C14.1486 44.3239 12.6348 39.4829 22.1531 34.9883C24.4607 33.8986 34.6152 30.5799 37.59 27.6532C45.2408 20.126 46.7135 32.1512 51.3118 29.9242C56.2975 27.5095 59.8879 12.9829 70.1792 12.9829C74.0632 12.9829 73.3446 20.092 76.4683 22.3186C81.4156 25.8448 85.6348 22.7811 85.6348 29.9242C85.6348 32.1951 91.532 36.0185 93.6205 40.9898C95.709 45.9611 90.7617 48.9918 90.7617 48.9918C90.7617 48.9918 86.1879 50.9829 81.4155 50.9829Z" fill="#5B7381"/>
<path d="M81.4155 50.9829H30.3503C26.236 50.9829 20.0138 50.0849 17.6844 47.7969C14.1486 44.3239 12.6348 39.4829 22.1531 34.9883C24.4607 33.8986 34.6152 30.5799 37.59 27.6532C45.2408 20.126 46.7135 32.1512 51.3118 29.9242C56.2975 27.5095 59.8879 12.9829 70.1792 12.9829C74.0632 12.9829 73.3446 20.092 76.4683 22.3186C81.4156 25.8448 85.6348 22.7811 85.6348 29.9242C85.6348 32.1951 91.532 36.0185 93.6205 40.9898C95.709 45.9611 90.7617 48.9918 90.7617 48.9918C90.7617 48.9918 86.1879 50.9829 81.4155 50.9829Z" stroke="#EBEBEB"/>
</g>
<path d="M61.56 72V70M61.56 68V70M61.56 70H60H61.5M61.56 70L60.25 71L61.5 70M61.56 70L62.75 71L61.5 70M63 70H61.5M61.5 70L62.75 68.75M61.5 70L60.25 68.75" stroke="#D3D3D3" stroke-width="0.7"/>
<path d="M56.56 81V79M56.56 77V79M56.56 79H55H56.5M56.56 79L55.25 80L56.5 79M56.56 79L57.75 80L56.5 79M58 79H56.5M56.5 79L57.75 77.75M56.5 79L55.25 77.75" stroke="#D3D3D3" stroke-width="0.7"/>
<path d="M63.56 61V59M63.56 57V59M63.56 59H62H63.5M63.56 59L62.25 60L63.5 59M63.56 59L64.75 60L63.5 59M65 59H63.5M63.5 59L64.75 57.75M63.5 59L62.25 57.75" stroke="#D3D3D3" stroke-width="0.7"/>
<path d="M49.12 64.7766V60.7766M49.12 57V60.7766M49.12 60.7766H46H49M49.12 60.7766L47.5 62.2766L49 60.7766M49.12 60.7766L51.04 62.5697L49 60.7766M52.5 60.7766H49M49 60.7766L50.5 59.2766M49 60.7766L47.5 59.2766" stroke="#D3D3D3"/>
<path d="M11.12 37.7766V33.7766M11.12 30V33.7766M11.12 33.7766H8H11M11.12 33.7766L9.5 35.2766L11 33.7766M11.12 33.7766L13.04 35.5697L11 33.7766M14.5 33.7766H11M11 33.7766L12.5 32.2766M11 33.7766L9.5 32.2766" stroke="#D3D3D3"/>
<path d="M73.5 65L74.12 61.7766M75.5 58L74.12 61.7766M74.12 61.7766H71H74M74.12 61.7766L71 64L74 61.7766M74.12 61.7766L76.5 64.5L74 61.7766M77.5 61.7766H74M74 61.7766L76.5 60M74 61.7766L73.5 58.5" stroke="#D3D3D3"/>
<path d="M38.56 60V58M38.56 56V58M38.56 58H37H38.5M38.56 58L37.25 59L38.5 58M38.56 58L39.75 59L38.5 58M40 58H38.5M38.5 58L39.75 56.75M38.5 58L37.25 56.75" stroke="#D3D3D3" stroke-width="0.7"/>
<path d="M23.56 70V68M23.56 66V68M23.56 68H22H23.5M23.56 68L22.25 69L23.5 68M23.56 68L24.75 69L23.5 68M25 68H23.5M23.5 68L24.75 66.75M23.5 68L22.25 66.75" stroke="#D3D3D3" stroke-width="0.7"/>
<path d="M43.56 75V73M43.56 71V73M43.56 73H42H43.5M43.56 73L42.25 74L43.5 73M43.56 73L44.75 74L43.5 73M45 73H43.5M43.5 73L44.75 71.75M43.5 73L42.25 71.75" stroke="#D3D3D3" stroke-width="0.7"/>
<path d="M22.56 32V30M22.56 28V30M22.56 30H21H22.5M22.56 30L21.25 31L22.5 30M22.56 30L23.75 31L22.5 30M24 30H22.5M22.5 30L23.75 28.75M22.5 30L21.25 28.75" stroke="#D3D3D3" stroke-width="0.7"/>
<path d="M29.12 60.7766V56.7766M29.12 53V56.7766M29.12 56.7766H26H29M29.12 56.7766L27.5 58.2766L29 56.7766M29.12 56.7766L31.04 58.5697L29 56.7766M32.5 56.7766H29M29 56.7766L30.5 55.2766M29 56.7766L27.5 55.2766" stroke="#D3D3D3"/>
<path d="M32.5 70L33.12 66.7766M34.5 63L33.12 66.7766M33.12 66.7766H30H33M33.12 66.7766L30 69L33 66.7766M33.12 66.7766L35.5 69.5L33 66.7766M36.5 66.7766H33M33 66.7766L35.5 65M33 66.7766L32.5 63.5" stroke="#D3D3D3"/>
<circle cx="36" cy="16" r="1" fill="#C4C4C4"/>
<circle cx="65" cy="38" r="1" fill="#C4C4C4"/>
<defs>
<filter id="filter0_d" x="0.500427" y="0.500015" width="75.4348" height="33.3801" filterUnits="userSpaceOnUse" color-interpolation-filters="sRGB">
<feFlood flood-opacity="0" result="BackgroundImageFix"/>
<feColorMatrix in="SourceAlpha" type="matrix" values="0 0 0 0 0 0 0 0 0 0 0 0 0 0 0 0 0 0 127 0"/>
<feOffset dy="4"/>
<feGaussianBlur stdDeviation="2"/>
<feColorMatrix type="matrix" values="0 0 0 0 0 0 0 0 0 0 0 0 0 0 0 0 0 0 0.25 0"/>
<feBlend mode="normal" in2="BackgroundImageFix" result="effect1_dropShadow"/>
<feBlend mode="normal" in="SourceGraphic" in2="effect1_dropShadow" result="shape"/>
</filter>
<filter id="filter1_d" x="10.4587" y="12.4829" width="88.1765" height="47" filterUnits="userSpaceOnUse" color-interpolation-filters="sRGB">
<feFlood flood-opacity="0" result="BackgroundImageFix"/>
<feColorMatrix in="SourceAlpha" type="matrix" values="0 0 0 0 0 0 0 0 0 0 0 0 0 0 0 0 0 0 127 0"/>
<feOffset dy="4"/>
<feGaussianBlur stdDeviation="2"/>
<feColorMatrix type="matrix" values="0 0 0 0 0 0 0 0 0 0 0 0 0 0 0 0 0 0 0.25 0"/>
<feBlend mode="normal" in2="BackgroundImageFix" result="effect1_dropShadow"/>
<feBlend mode="normal" in="SourceGraphic" in2="effect1_dropShadow" result="shape"/>
</filter>
</defs>
</svg>
